<?xml version="1.0" standalone="no"?>
<!DOCTYPE svg PUBLIC "-//W3C//DTD SVG 1.1//EN" "http://www.w3.org/Graphics/SVG/1.1/DTD/svg11.dtd" >
<svg>
<metadata>
Created by FontForge 20090914 at Mon Apr  9 15:47:31 2012
 By www-data
The digitally encoded machine readable outline data for producing the Typefaces licensed to you is copyrighted (C), 1998 by and the property of Heidelberger Druckmaschinen AG and/or its subsidiaries. All rights reserved.
</metadata>
<defs>
<font id="Frutiger-Cn" horiz-adv-x="983" >
  <font-face 
    font-family="Frutiger 57Cn"
    font-weight="400"
    font-stretch="normal"
    units-per-em="2048"
    panose-1="2 11 5 0 0 0 0 0 0 0"
    ascent="1638"
    descent="-410"
    x-height="1044"
    cap-height="1429"
    bbox="-215 -512 2048 1903"
    underline-thickness="102"
    underline-position="-154"
    unicode-range="U+0020-U+F002"
  />
<missing-glyph horiz-adv-x="1024" 
d="M102 0v1092h820v-1092h-820zM204 102h616v888h-616v-888z" />
    <glyph glyph-name=".notdef" horiz-adv-x="1024" 
d="M102 0v1092h820v-1092h-820zM204 102h616v888h-616v-888z" />
    <glyph glyph-name="visiblespace" unicode=" " horiz-adv-x="491" 
 />
    <glyph glyph-name="exclam" unicode="!" horiz-adv-x="721" 
d="M434 381l29 1048h-205l29 -1048h147zM262 0h197v229h-197v-229z" />
    <glyph glyph-name="quotedbl" unicode="&#x22;" horiz-adv-x="1024" 
d="M592 1061h147v475h-147v-475zM285 1061h147v475h-147v-475z" />
    <glyph glyph-name="numbersign" unicode="#" 
d="M391 872h244l-43 -315h-244zM147 0h123l64 446h243l-63 -446h123l63 446h217v111h-202l43 315h217v111h-203l61 446h-122l-62 -446h-244l62 446h-123l-61 -446h-217v-111h202l-43 -315h-217v-111h203z" />
    <glyph glyph-name="dollar" unicode="$" 
d="M534 168v427.998v0c56 -39.333 92.333 -76.333 109 -111c15.333 -35.333 23 -74.666 23 -117.999c0 -42.667 -11 -81.667 -33 -117s-55 -62.666 -99 -81.999v0zM453 875.998c-53.333 38.667 -89.666 73 -108.999 103s-28.333 62 -27 96
c1.33301 97.333 46.666 163 135.999 197v-396zM453 -192.002l81.002 -0.00292969v188c106.667 20.667 186.667 66.334 240 137.001c53.333 72.667 80 158.667 80 258c2.66699 158.667 -86 291 -266 397c-20.667 12.667 -38.667 24.334 -54 35.001v465h11
c88.667 -1.33301 168.334 -23 239.001 -65v0v174c-68 28.667 -151.333 44.334 -250 47.001v164h-81v-168c-94.667 -12.667 -171.334 -49 -230.001 -109c-62.667 -58.667 -94 -140.667 -94 -246c-1.33301 -86 17.667 -157.667 57 -215
c37.333 -58.667 106.333 -118.667 207 -180l60 -37v-510c-14 -1.33301 -27.667 -2 -41 -2c-42.667 0 -88 9.66699 -136 29c-48.667 18 -94.334 39 -137.001 63v0v-186c40 -18 85 -32.333 135 -43c50.667 -12 102 -18 154 -18c9.33301 0 17.666 0.666992 24.999 2v-180z" />
    <glyph glyph-name="percent" unicode="%" horiz-adv-x="1667" 
d="M119 1049c4 -265.333 98.667 -397.333 284 -396c186 -1.33301 281 130.667 285 396c-4 264.667 -99 396.334 -285 395.001c-185.333 1.33301 -280 -130.334 -284 -395.001v0zM266 1049c-1.33301 182.667 44.334 273.334 137.001 272.001
c92 1.33301 138 -89.334 138 -272.001c0 -184.667 -46 -275.667 -138 -273c-92.667 -2.66699 -138.334 88.333 -137.001 273v0zM979 381c4 -264.667 99 -396.334 285 -395.001c185.333 -1.33301 280 130.334 284 395.001c-4 264.667 -98.667 396.334 -284 395.001
c-186 1.33301 -281 -130.334 -285 -395.001v0zM1126 381c-1.33301 182.667 44.667 273.334 138 272.001c91.333 1.33301 137 -89.334 137 -272.001c0 -184.667 -45.667 -275.334 -137 -272.001c-93.333 -3.33301 -139.333 87.334 -138 272.001v0zM448 -68h132l641 1565h-132
z" />
    <glyph glyph-name="ampersand" unicode="&#x26;" horiz-adv-x="1251" 
d="M485 696l315.999 -425.999c-23.333 -35.333 -57.666 -66 -102.999 -92c-44.667 -30 -91.667 -45 -141 -45c-80.667 1.33301 -144 27.333 -190 78c-48 49.333 -72 110.666 -72 183.999c0 66 19 124.667 57 176c34 49.333 78.333 91 133 125v0zM1214 0.000976562
l-220.999 282.997c94.667 156.667 148 330 160 520h-172c-5.33301 -146 -34 -276.333 -86 -391v0l-264 366c96.667 56 167 116 211 180c40.667 62 61 125 61 189c-1.33301 87.333 -30 158.333 -86 213c-57.333 54.667 -135.666 82.667 -234.999 84
c-98.667 -1.33301 -177.334 -28 -236.001 -80c-62.667 -53.333 -94 -127.666 -94 -222.999c1.33301 -58.667 17.666 -116 48.999 -172s63.333 -107.333 96 -154c-188 -95.333 -282 -240 -282 -434c0 -109.333 36 -201.666 108 -276.999
c70 -77.333 173.667 -116.666 311 -117.999c74 0 142.333 14.333 205 43s112.667 71.667 150 129v0l112 -158h213zM739 1149c0 -48 -13.666 -91.667 -40.999 -131c-30 -40 -80.333 -82.333 -151 -127v0c-30 36.667 -58.667 79.667 -86 129c-30 49.333 -45 93 -45 131
c0 48 16.333 85.667 49 113c31.333 26.667 71 40 119 40c53.333 -1.33301 92.666 -17 117.999 -47c24.667 -30 37 -66 37 -108v0z" />
    <glyph glyph-name="quotesingle" unicode="'" horiz-adv-x="491" 
d="M172 1061h147v475h-147v-475z" />
    <glyph glyph-name="parenleft" unicode="(" horiz-adv-x="569" 
d="M543 -274c-94.667 185.333 -160.334 347 -197.001 485c-36.667 136.667 -54.334 276.667 -53.001 420c-1.33301 144.667 16.334 286 53.001 424c36.667 136 102.334 296.333 197.001 481l-138 12c-185.333 -311.333 -280 -617 -284 -917
c4 -299.333 98.667 -605.333 284 -918z" />
    <glyph glyph-name="parenright" unicode=")" horiz-adv-x="569" 
d="M164 -287c185.333 312.667 280 618.667 284 918c-4 300 -98.667 605.667 -284 917l-137 -12c96.667 -184.667 163.334 -345 200.001 -481c34.667 -138 51 -279.333 49 -424c2 -143.333 -14.333 -283.333 -49 -420c-36.667 -138 -103.334 -299.667 -200.001 -485z" />
    <glyph glyph-name="asterisk" unicode="*" horiz-adv-x="1024" 
d="M811 1374l-248 -104v0l27 266h-156l23 -268v0l-246 106v0l-47 -147l262 -60l-178 -202l125 -91v0l139 230v0l135 -230v0l127 91l-176 202l262 60l-49 147v0z" />
    <glyph glyph-name="plus" unicode="+" horiz-adv-x="1229" 
d="M96 448h449v-448h139v448h448v140h-448v448h-139v-448h-449v-140z" />
    <glyph glyph-name="comma" unicode="," horiz-adv-x="491" 
d="M53 -246h156l135 475h-188z" />
    <glyph glyph-name="glyph15" unicode="-" horiz-adv-x="606" 
d="M82 502h442v147h-442v-147z" />
    <glyph glyph-name="period" unicode="." horiz-adv-x="491" 
d="M147 0h197v229h-197v-229z" />
    <glyph glyph-name="slash" unicode="/" horiz-adv-x="530" 
d="M0 -14h152l378 1458h-151z" />
    <glyph glyph-name="zero" unicode="0" 
d="M256 715c-1.33301 390 77 583.667 235 581c158.667 2.66699 237.334 -191 236.001 -581c1.33301 -392 -77.334 -586 -236.001 -582c-158 -4 -236.333 190 -235 582v0zM76 715c1.33301 -483.333 139.666 -726.333 414.999 -729
c274.667 2.66699 413.334 245.667 416.001 729c-2.66699 483.333 -141.334 726.333 -416.001 729c-275.333 -2.66699 -413.666 -245.667 -414.999 -729v0z" />
    <glyph glyph-name="one" unicode="1" 
d="M414 1223v-1223h180v1429h-164l-293 -278l94 -133v0l183 205v0z" />
    <glyph glyph-name="two" unicode="2" 
d="M76 0l750.999 -0.000976562v156h-553c158.667 159.333 286.334 321.666 383.001 486.999c98.667 165.333 148.667 312 150 440c-1.33301 101.333 -33.333 186 -96 254c-64.667 70 -153 105.667 -265 107c-94 0 -205.667 -28.667 -335 -86l22 -180v0
c91.333 70.667 183 107.334 275 110.001c72 -1.33301 125 -24.666 159 -69.999c34 -46 51 -102.333 51 -169c0 -184.667 -180.667 -481.667 -542 -891v-158z" />
    <glyph glyph-name="three" unicode="3" 
d="M92 215l-16.0029 -176.001c88.667 -34 190.334 -51.667 305.001 -53c155.333 1.33301 272 42.333 350 123c76.667 76 115 172 115 288c0 93.333 -24 172.666 -72 237.999c-48 64 -116.333 102.333 -205 115v4c78 16 141.667 51.333 191 106
c47.333 54.667 71.666 131 72.999 229c-1.33301 120.667 -39.333 210.334 -114 269.001c-74 57.333 -169 86 -285 86c-113.333 0 -217.666 -20 -312.999 -60l16 -168v0c90 52 177.333 78.667 262 80c76.667 -1.33301 138.334 -21.666 185.001 -60.999
c46 -42.667 69 -100 69 -172c0 -162.667 -111.333 -246.667 -334 -252h-73v-147h133c182.667 -4.66699 275.334 -86 278.001 -244c-1.33301 -87.333 -30 -156.333 -86 -207c-57.333 -53.333 -126 -80 -206 -80c-83.333 0 -174.333 27.333 -273 82v0z" />
    <glyph glyph-name="four" unicode="4" 
d="M608 0h172v324h156v147h-156v958h-219l-514 -933v-172h561v-324zM608 471h-409l405 778h4v-778z" />
    <glyph glyph-name="five" unicode="5" 
d="M133 209l-8 -166.001c90 -36.667 183.333 -55.667 280 -57c153.333 1.33301 269 47 347 137c76 88.667 114 207.334 114 356.001c-1.33301 142 -40 248.667 -116 320c-75.333 70.667 -167.666 106 -276.999 106c-57.333 0 -111.333 -7.33301 -162 -22v399h486v147h-658
v-718c91.333 31.333 170 47 236 47c199.333 -1.33301 300.333 -101.666 303 -300.999c-1.33301 -94.667 -28 -171.334 -80 -230.001c-52 -62.667 -124.333 -94 -217 -94c-42.667 0 -85.667 8.33301 -129 25c-46.667 14.667 -86.334 31.667 -119.001 51v0z" />
    <glyph glyph-name="six" unicode="6" 
d="M274 446c0 79.333 19.333 150.333 58 213c36.667 64.667 93.334 97.667 170.001 99c76 -1.33301 132.667 -34.333 170 -99c36.667 -62.667 55 -133.667 55 -213c0 -80 -18.333 -151 -55 -213c-18 -28.667 -41.333 -52.334 -70 -71.001c-28.667 -19.333 -62 -29 -100 -29
c-37.333 0 -70.333 9.66699 -99 29c-28.667 18.667 -52.334 42.334 -71.001 71.001c-38.667 62 -58 133 -58 213v0zM836 1235l8 167.998c-68.667 26 -148 39.667 -238 41c-354.667 0 -531.334 -262.333 -530.001 -787c-1.33301 -208.667 30.667 -371.667 96 -489
c65.333 -120 173.333 -180.667 324 -182c118.667 0 216 40 292 120c78 78 117.667 195.667 119 353c0 117.333 -31.333 220.333 -94 309c-64 88.667 -157 134.334 -279 137.001c-133.333 -1.33301 -227.333 -60 -282 -176h-4c0 172 32 309.333 96 412
c62.667 102 153.334 153.667 272.001 155c80.667 -1.33301 154 -21.666 220 -60.999v0z" />
    <glyph glyph-name="seven" unicode="7" 
d="M227 0h199l442 1259v170h-753v-155h581z" />
    <glyph glyph-name="eight" unicode="8" 
d="M285 1083c0 61.333 20.332 112.002 60.999 152.002c38 39.333 86.333 59.666 145 60.999c62 -1.33301 112 -21 150 -59s57 -85 57 -141c0 -53.333 -17 -104 -51 -152c-35.333 -48 -81.666 -92.333 -138.999 -133v0c-41.333 19.333 -76.333 39.666 -105 60.999
c-28.667 23.333 -51.667 46 -69 68c-34 48 -50.333 95.667 -49 143v0zM255.999 397.002c-1.33301 53.333 13.667 102 45 146c31.333 43.333 90.666 89 177.999 137v0c88.667 -40 153 -83 193 -129c36.667 -46.667 55 -102 55 -166c-1.33301 -74 -21.666 -134 -60.999 -180
c-41.333 -48 -95.333 -72 -162 -72c-78 1.33301 -138 28 -180 80c-45.333 52 -68 113.333 -68 184v0zM75.999 377.002c0 -112 37.3311 -204.333 111.998 -277c72.667 -74.667 173.667 -112.667 303 -114c131.333 1.33301 233.333 39.333 306 114
c72 72.667 108.667 165 110 277c-4 180 -92.667 301.333 -266 364c84.667 45.333 146 100 184 164c36 64 54 127.667 54 191c0 91.333 -33 171.666 -99 240.999c-66.667 68.667 -163 104.334 -289 107.001c-125.333 -2.66699 -220.666 -38.334 -285.999 -107.001
c-67.333 -69.333 -101 -149.666 -101 -240.999c-1.33301 -63.333 17.334 -127 56.001 -191c38 -64 99.333 -118.667 184 -164c-174.667 -62.667 -264 -184 -268 -364v0z" />
    <glyph glyph-name="nine" unicode="9" 
d="M256 983c0 82 19 154.333 57 217c37.333 62.667 93.333 94.667 168 96c78 -1.33301 135.333 -33.333 172 -96c37.333 -62.667 56 -135 56 -217c0 -79.333 -18.667 -149.666 -56 -210.999c-17.333 -28.667 -40.333 -52.667 -69 -72c-28.667 -18.667 -63 -28 -103 -28
c-36.667 0 -68.667 9.33301 -96 28c-28.667 19.333 -52.667 43.333 -72 72c-38 61.333 -57 131.666 -57 210.999v0zM147 195l-8.00098 -168c68.667 -26 148 -39.667 238 -41c353.333 0 530 262 530 786c0 208.667 -31.333 372.667 -94 492
c-65.333 118.667 -174 178.667 -326 180c-117.333 0 -214 -39 -290 -117c-79.333 -79.333 -119.666 -198 -120.999 -356c0 -116 32 -218.333 96 -307c64 -92 156 -138.667 276 -140c134 1.33301 228.333 60 283 176h4c0 -170.667 -31.333 -307 -94 -409
c-64 -104 -155.333 -156.667 -274 -158c-80.667 0 -154 20.667 -220 62v0z" />
    <glyph glyph-name="colon" unicode=":" horiz-adv-x="491" 
d="M147 815h197v229h-197v-229zM147 0h197v229h-197v-229z" />
    <glyph glyph-name="semicolon" unicode=";" horiz-adv-x="491" 
d="M53 -246h156l135 475h-188zM147 815h197v229h-197v-229z" />
    <glyph glyph-name="less" unicode="&#x3c;" horiz-adv-x="1229" 
d="M96 453l1036 -467v0v131l-880 401l880 401v132v0l-1036 -467v-131z" />
    <glyph glyph-name="equal" unicode="=" horiz-adv-x="1229" 
d="M96 655h1036v140h-1036v-140zM96 242h1036v139h-1036v-139z" />
    <glyph glyph-name="greater" unicode="&#x3e;" horiz-adv-x="1229" 
d="M96 -14l1036 467v131l-1036 467v0v-132l881 -401l-881 -401v-131z" />
    <glyph glyph-name="question" unicode="?" horiz-adv-x="909" 
d="M156 1218c34 18 72.667 34.667 116 50c42.667 13.333 81.667 20 117 20c65.333 0 118 -21 158 -63c38 -41.333 57.667 -97.333 59 -168c1.33301 -88.667 -39.667 -184.334 -123 -287.001c-60 -74 -98 -136 -114 -186c-18 -52 -26.333 -123 -25 -213h156
c0 62.667 4.66699 109.667 14 141c6.66699 30 23 61.333 49 94l119 174c69.333 108 104 212 104 312c-5.33301 232 -130 349.333 -374 352c-92 -1.33301 -180.333 -20.666 -265 -57.999zM324 0h196v229h-196v-229z" />
    <glyph glyph-name="at" unicode="@" horiz-adv-x="1638" 
d="M553 596c2.66699 122.667 39.668 221.666 111.001 296.999c68 74.667 137.333 113 208 115c104 -3.33301 157.333 -63.666 160 -180.999c-1.33301 -90 -32 -180.667 -92 -272c-28.667 -44 -63.334 -79.667 -104.001 -107c-41.333 -30 -87.333 -45 -138 -45
c-42 0 -76 18 -102 54c-28.667 32.667 -43 79 -43 139v0zM1264 1098h-132.006l-40 -123v0c-49.333 102 -124 153.667 -224 155c-143.333 -2.66699 -256.666 -60.667 -339.999 -174c-87.333 -110.667 -131 -234.667 -131 -372c0 -79.333 22 -148.333 66 -207
c42 -62.667 106 -94.667 192 -96c104 -1.33301 193 39.334 267 122.001h4c18.667 -81.333 72.334 -122 161.001 -122c96 0 195 49.667 297 149c105.333 95.333 160 229.666 164 402.999c-2.66699 175.333 -68 320.333 -196 435c-127.333 114.667 -290 173.334 -488 176.001
c-226.667 -2.66699 -411 -73 -553 -211c-146 -138 -219.667 -310.667 -221 -518c2.66699 -206.667 74.334 -378 215.001 -514c136.667 -140.667 308 -212.334 514 -215.001c307.333 4 530.666 119.333 669.999 346h-127
c-53.333 -68.667 -123.666 -121.334 -210.999 -158.001c-87.333 -38 -198 -57 -332 -57c-169.333 1.33301 -308.666 58.666 -417.999 171.999c-113.333 110.667 -170.666 252.667 -171.999 426c1.33301 176 61 318.667 179 428c112.667 112 264.667 168.667 456 170
c165.333 -1.33301 297 -43.666 395 -126.999c98.667 -86 148.667 -203.667 150 -353c-1.33301 -117.333 -31.333 -217 -90 -299c-27.333 -39.333 -58.666 -70.666 -93.999 -93.999c-34.667 -24.667 -71.667 -37 -111 -37c-31.333 1.33301 -46.333 16.333 -45 45
c0 32 6.66699 65 20 99z" />
    <glyph glyph-name="A" unicode="A" horiz-adv-x="1175" 
d="M496 1429l-480 -1429h181l114 373h545l115 -373h188l-467 1429h-196zM360 528l226 713h4l219 -713h-449z" />
    <glyph glyph-name="B" unicode="B" horiz-adv-x="1063" 
d="M158 0h344c155.333 1.33301 269.333 42.333 342 123c69.333 76.667 104 166 104 268c-1.33301 101.333 -26 183.333 -74 246c-48.667 61.333 -112.667 97.333 -192 108v5c152.667 48.667 231 154.334 235 317.001c0 108 -30.667 195.333 -92 262
c-64 65.333 -165.667 98.666 -305 99.999h-362v-1429zM338 1282h137c92.667 -1.33301 160.334 -23.333 203.001 -66c39.333 -42 59 -95 59 -159c1.33301 -161.333 -96.334 -243.333 -293.001 -246h-106v471zM338 664l174 -0.00195312c87.333 -2 152.333 -26.667 195 -74
c40.667 -49.333 61 -111.666 61 -186.999c0 -69.333 -22 -128.666 -66 -177.999c-44.667 -50.667 -115 -76.667 -211 -78h-153v517z" />
    <glyph glyph-name="C" unicode="C" horiz-adv-x="1100" 
d="M1001 209c-76 -45.333 -161.334 -68 -256.001 -68c-155.333 1.33301 -270.666 58 -345.999 170c-74.667 109.333 -112 257 -112 443c1.33301 174.667 47 307.667 137 399c86 90 189 135 309 135c101.333 0 190.666 -24 267.999 -72v0v177c-70.667 34 -160.667 51 -270 51
c-190 -1.33301 -341.667 -66.333 -455 -195c-117.333 -129.333 -176.666 -306.666 -177.999 -531.999c-1.33301 -198 50 -368 154 -510c102 -143.333 265 -217 489 -221c86 1.33301 172.667 15.666 260 42.999v180z" />
    <glyph glyph-name="D" unicode="D" horiz-adv-x="1175" 
d="M137 0l222.998 -0.000976562c266.667 2.66699 456.667 74.334 570 215.001c110.667 136.667 165.334 310.667 164.001 522c-1.33301 161.333 -28.666 289 -81.999 383c-54.667 96 -115.667 165 -183 207c-39.333 30 -88.333 54.667 -147 74c-60 18.667 -138 28 -234 28
h-311v-1429zM316.998 1274h109c174.667 -2.66699 299 -54.667 373 -156c72 -99.333 107.333 -226.333 106 -381c-1.33301 -382 -161 -575.667 -479 -581h-109v1118z" />
    <glyph glyph-name="E" unicode="E" horiz-adv-x="948" 
d="M158 0h692v156h-512v508h463v155h-463v455h485v155h-665v-1429z" />
    <glyph glyph-name="F" unicode="F" horiz-adv-x="872" 
d="M158 0h180v664h436v155h-436v455h459v155h-639v-1429z" />
    <glyph glyph-name="G" unicode="G" horiz-adv-x="1253" 
d="M1096 786l-412.001 -0.00195312v-155h240v-451c-23.333 -12 -51.333 -20.667 -84 -26c-33.333 -8.66699 -65 -13 -95 -13c-155.333 1.33301 -270.666 58 -345.999 170c-74.667 109.333 -112 257 -112 443c1.33301 174.667 47 307.667 137 399c86 90 189 135 309 135
c109.333 -1.33301 220.666 -30.666 333.999 -87.999v0v180c-100 44 -212 65.333 -336 64c-190 -1.33301 -341.667 -66.333 -455 -195c-117.333 -129.333 -176.666 -306.666 -177.999 -531.999c-1.33301 -198 50 -368 154 -510c102 -143.333 265 -217 489 -221
c66 1.33301 131 10 195 26l88 25c27.333 8 51.333 15.333 72 22v727z" />
    <glyph glyph-name="H" unicode="H" horiz-adv-x="1175" 
d="M158 0h180v664h500v-664h180v1429h-180v-610h-500v610h-180v-1429z" />
    <glyph glyph-name="I" unicode="I" horiz-adv-x="496" 
d="M158 0h180v1429h-180v-1429z" />
    <glyph glyph-name="J" unicode="J" horiz-adv-x="645" 
d="M47 0c50.667 -8 100.666 -12.667 149.999 -14c107.333 1.33301 186.333 38 237 110c49.333 71.333 74 164.333 74 279v1054h-180v-1044c0 -151.333 -60.333 -227 -181 -227c-35.333 1.33301 -68.666 8 -99.999 20v-178z" />
    <glyph glyph-name="K" unicode="K" horiz-adv-x="1063" 
d="M137 0h180v692h5l499 -692h234l-582 754l537 675h-215l-473 -620h-5v620h-180v-1429z" />
    <glyph glyph-name="L" unicode="L" horiz-adv-x="833" 
d="M158 0h649v156h-469v1273h-180v-1429z" />
    <glyph glyph-name="M" unicode="M" horiz-adv-x="1593" 
d="M158 0h172v1233h4l389 -1233h131l405 1233h5v-1233h172v1429h-271l-366 -1136h-4l-359 1136h-278v-1429z" />
    <glyph glyph-name="N" unicode="N" horiz-adv-x="1253" 
d="M158 0h172v1171h4l538 -1171h224v1429h-172v-1179h-5l-538 1179h-223v-1429z" />
    <glyph glyph-name="O" unicode="O" horiz-adv-x="1253" 
d="M98 700c0 -222 48.001 -396 144.001 -522c91.333 -126.667 216.666 -190.667 375.999 -192c352.667 1.33301 531.667 249 537 743c-8 468 -181.333 706.333 -520 715c-354 -1.33301 -533 -249.333 -537 -744v0zM287.001 700c1.33301 218.667 36 373.664 104 464.997
c65.333 88.667 146.666 132.334 243.999 131.001c120 -2.66699 206 -60.667 258 -174c49.333 -112 74 -243 74 -393c-1.33301 -217.333 -35.666 -371.666 -102.999 -462.999c-66.667 -90 -148.667 -134.333 -246 -133c-118.667 2.66699 -204 61.334 -256 176.001
c-51.333 112 -76.333 242.333 -75 391v0z" />
    <glyph glyph-name="P" unicode="P" horiz-adv-x="985" 
d="M158 0l180 0.000976562v598h121c308.667 1.33301 463.667 143.333 465 426c-1.33301 125.333 -39 223.666 -113 294.999c-35.333 36.667 -77.666 64.667 -126.999 84c-50.667 17.333 -111.334 26 -182.001 26h-344v-1429zM338 1282h102
c194 2.66699 292.333 -88.666 295 -273.999c0 -80.667 -21.667 -144.334 -65 -191.001c-46.667 -48 -124.667 -72 -234 -72h-98v537z" />
    <glyph glyph-name="Q" unicode="Q" horiz-adv-x="1253" 
d="M1126 -266l-274 302.999c199.333 96.667 300.333 327.334 303 692.001c-8 468 -181.333 706.333 -520 715c-354 -1.33301 -533 -249.333 -537 -744c0 -222 48 -396 144 -522c91.333 -126.667 216.666 -190.667 375.999 -192c12.667 1.33301 25 2 37 2
c12.667 1.33301 24.334 3.33301 35.001 6l215 -260h221zM287 699.999c1.33301 218.667 36 373.664 104 464.997c65.333 88.667 146.666 132.334 243.999 131.001c120 -2.66699 206 -60.667 258 -174c49.333 -112 74 -243 74 -393
c-1.33301 -217.333 -35.666 -371.666 -102.999 -462.999c-66.667 -90 -148.667 -134.333 -246 -133c-118.667 2.66699 -204 61.334 -256 176.001c-51.333 112 -76.333 242.333 -75 391v0z" />
    <glyph glyph-name="R" unicode="R" horiz-adv-x="1063" 
d="M158 0h180.001v647h82c66.667 0 116.334 -12.333 149.001 -37c32.667 -26 58.667 -68.333 78 -127l164 -483h194l-200 573c-14 41.333 -32.333 73 -55 95c-24.667 21.333 -58.334 36.333 -101.001 45v4c105.333 24.667 179.666 69 222.999 133c40 61.333 60 131 60 209
c0 108 -35.667 198.667 -107 272c-31.333 31.333 -70 56 -116 74c-48 16 -109.667 24 -185 24h-366v-1429zM338.001 1282h143c80.667 0 145 -19 193 -57c46 -38.667 69 -98.334 69 -179.001c0 -64 -19.667 -121.333 -59 -172c-42.667 -51.333 -111.667 -77.666 -207 -78.999
h-139v487z" />
    <glyph glyph-name="S" unicode="S" horiz-adv-x="909" 
d="M747 1223l-0.00390625 174c-31.333 14.667 -70 26 -116 34c-46.667 8.66699 -94 13 -142 13c-110 0 -202.667 -30 -278 -90c-78 -60 -117.667 -149.667 -119 -269c-1.33301 -88.667 19.334 -163 62.001 -223c43.333 -61.333 128 -129.666 254 -204.999
c92.667 -56 154 -104.333 184 -145c16 -22 27 -44.667 33 -68c2.66699 -22.667 4 -48.334 4 -77.001c0 -58.667 -22 -110 -66 -154c-43.333 -46.667 -106 -70.667 -188 -72c-42.667 0 -87.667 9.66699 -135 29c-49.333 18 -95.333 39 -138 63v0v-186
c80.667 -39.333 180.334 -59.666 299.001 -60.999c138 1.33301 242 40.666 312 117.999c69.333 76.667 104 172.334 104 287.001c0 82 -21 156.333 -63 223c-45.333 67.333 -122.666 131.666 -231.999 192.999c-99.333 57.333 -164.666 105.666 -195.999 144.999
c-16.667 20.667 -27.667 41.334 -33 62.001c-8 18.667 -12 39 -12 61c0 62.667 20.333 114 61 154c39.333 38 93.333 57.667 162 59c91.333 -1.33301 172.333 -23 243 -65v0z" />
    <glyph glyph-name="T" unicode="T" horiz-adv-x="909" 
d="M365 0h180v1274h327v155h-835v-155h328v-1274z" />
    <glyph glyph-name="U" unicode="U" horiz-adv-x="1212" 
d="M1055 1429h-181.001v-929c0 -112 -23 -201 -69 -267c-45.333 -66.667 -111.666 -100 -198.999 -100c-84.667 0 -150 33.333 -196 100c-48 66 -72 155 -72 267v929h-180v-903c-2.66699 -126.667 16.333 -233 57 -319c30 -61.333 77.667 -112.666 143 -153.999
c63.333 -43.333 146 -65.666 248 -66.999c104 1.33301 188.667 23.666 254 66.999c62.667 41.333 108.334 92.666 137.001 153.999c41.333 86 60.666 192.333 57.999 319v903z" />
    <glyph glyph-name="V" unicode="V" horiz-adv-x="1100" 
d="M453 0h180l448 1429h-180l-350 -1165h-4l-332 1165h-197z" />
    <glyph glyph-name="W" unicode="W" horiz-adv-x="1630" 
d="M330 0h213l270 1225h4l270 -1225h213l312 1429h-172l-250 -1159h-4l-256 1159h-230l-256 -1159h-4l-233 1159h-189z" />
    <glyph glyph-name="X" unicode="X" horiz-adv-x="1100" 
d="M12 0h205l322 596v0l335 -596h213l-426 754l400 675h-199l-287 -526v0l-299 526h-213l383 -673z" />
    <glyph glyph-name="Y" unicode="Y" horiz-adv-x="1061" 
d="M440 0h180v600l429 829h-199l-318 -632v0l-315 632h-205l428 -829v-600z" />
    <glyph glyph-name="Z" unicode="Z" horiz-adv-x="948" 
d="M70 0h809v156h-613l600 1118v155h-778v-155h563l-581 -1104v-170z" />
    <glyph glyph-name="bracketleft" unicode="[" horiz-adv-x="569" 
d="M184 -287h312v123h-164v1589h164v123h-312v-1835z" />
    <glyph glyph-name="backslash" unicode="\" horiz-adv-x="530" 
d="M379 -14h151l-378 1458h-152z" />
    <glyph glyph-name="bracketright" unicode="]" horiz-adv-x="569" 
d="M74 -287h311v1835h-311v-123h164v-1589h-164v-123z" />
    <glyph glyph-name="asciicircum" unicode="^" horiz-adv-x="1229" 
d="M96 543h148l370 747v0l371 -747h147l-452 886h-131z" />
    <glyph glyph-name="underscore" unicode="_" horiz-adv-x="1024" 
d="M0 -256h1024v102h-1024v-102z" />
    <glyph glyph-name="grave" unicode="`" horiz-adv-x="418" 
d="M180 1188h131l-137 297h-203z" />
    <glyph glyph-name="a" unicode="a" horiz-adv-x="948" 
d="M184 811c66 70.667 155.667 106.668 269 108.001c36.667 0 70.667 -4.66699 102 -14s55.333 -26.333 72 -51c16 -22 26.667 -46 32 -72c4.66699 -26 7 -58 7 -96v-47h-101c-176 -1.33301 -302.333 -34 -379 -98c-76 -66 -113.333 -150.667 -112 -254
c0 -100 29.333 -174.667 88 -224c54.667 -51.333 125.667 -77 213 -77c79.333 1.33301 142.666 17.666 189.999 48.999c46.667 30 81 65.333 103 106h4l10 -141h156c-6 40.667 -9 94 -9 160v544c0 72.667 -8.66699 128.667 -26 168c-19.333 38.667 -40.666 68 -63.999 88
c-16 19.333 -46.667 40 -92 62c-22 10.667 -48.667 19.667 -80 27c-32.667 6.66699 -68 10 -106 10c-106.667 -1.33301 -205 -30 -295 -86zM666 381.001c0 -74 -21.333 -135.333 -64 -184c-43.333 -52 -103.333 -78.667 -180 -80c-117.333 2.66699 -176 63.334 -176 182.001
c0 62.667 25.333 114.667 76 156c48.667 39.333 123 59.666 223 60.999c48.667 0 89 -1.33301 121 -4v-131z" />
    <glyph glyph-name="b" unicode="b" horiz-adv-x="985" 
d="M281 522c-1.33301 263.333 75 395.666 229 396.999c154 -1.33301 230.333 -133.666 229 -396.999c1.33301 -264.667 -75 -397 -229 -397s-230.333 132.333 -229 397v0zM109 192c-2 -64 -5 -127.999 -9 -191.999h166l6 154h4c22 -42.667 55 -80.334 99 -113.001
c42 -35.333 100.667 -53.666 176 -54.999c233.333 0 353.333 178.667 360 536c-6.66699 358 -126.667 537 -360 537c-113.333 1.33301 -202 -51.334 -266 -158.001h-4v635h-172v-1344z" />
    <glyph glyph-name="c" unicode="c" horiz-adv-x="797" 
d="M739 862l7.99902 155.999c-60 27.333 -128.667 41 -206 41c-306 -6.66699 -461.667 -189 -467 -547c0 -150 38.667 -274.333 116 -373c75.333 -99.333 191 -150.333 347 -153c86 2.66699 159 17.667 219 45l-9 157c-58.667 -35.333 -128.667 -53.666 -210 -54.999
c-183.333 2.66699 -277.666 129 -282.999 379c5.33301 270 101 403 287 399c76 0 142 -16.333 198 -49v0z" />
    <glyph glyph-name="d" unicode="d" horiz-adv-x="985" 
d="M704 522c2 -264.667 -74.333 -397 -229 -397c-154 0 -230.333 132.333 -229 397c-1.33301 263.333 75 395.666 229 396.999c154.667 -1.33301 231 -133.666 229 -396.999v0zM876 1536l-171.999 -0.000976562v-635h-4c-64 106.667 -152.667 159.334 -266 158.001
c-234.667 0 -354.667 -179 -360 -537c5.33301 -357.333 125.333 -536 360 -536c75.333 1.33301 134.666 19.666 177.999 54.999c42.667 32.667 75 70.334 97 113.001h4l6 -154h166c-6 64 -9 128 -9 192v1344z" />
    <glyph glyph-name="e" unicode="e" horiz-adv-x="909" 
d="M844 471v92.002c-2.66699 325.333 -125 490.666 -367 495.999c-129.333 -1.33301 -228.333 -49.333 -297 -144c-70.667 -95.333 -106 -226.333 -106 -393c0 -165.333 36 -295 108 -389c70 -96.667 174 -145.667 312 -147c108.667 1.33301 206 21.666 292 60.999l-8 156v0
c-30 -20.667 -66 -40 -108 -58c-44 -18.667 -87.667 -28 -131 -28c-190 -1.33301 -285 116.667 -285 354h590zM254 602.002c4 121.333 26.667 206.667 68 256c40.667 46.667 89 70 145 70c136.667 0 205 -108.667 205 -326h-418z" />
    <glyph glyph-name="f" unicode="f" horiz-adv-x="569" 
d="M199 0h172v905h188v139h-188v220c0 52.667 9.33301 92 28 118c18 26 50.333 39 97 39c43.333 0 76 -8 98 -24v147c-41.333 10.667 -86.333 16 -135 16c-90 0 -155.667 -25 -197 -75c-42 -50.667 -63 -119.667 -63 -207v-234h-166v-139h166v-905z" />
    <glyph glyph-name="g" unicode="g" horiz-adv-x="985" 
d="M246 522c-1.33301 263.333 75 395.666 229 396.999c154.667 -1.33301 231 -133.666 229 -396.999c2 -264.667 -74.333 -397 -229 -397c-154 0 -230.333 132.333 -229 397v0zM876 854c0 64 2.99902 127.333 8.99902 190h-166l-6 -151h-4
c-62 108 -147.333 163.333 -256 166c-248.667 0 -375 -179 -379 -537c5.33301 -357.333 125.333 -536 360 -536c114.667 0 206.334 58.667 275.001 176h4v-164c0 -91.333 -22 -164.333 -66 -219c-46.667 -56 -122.334 -84.667 -227.001 -86
c-49.333 1.33301 -99.333 10 -150 26c-53.333 18 -99 39.333 -137 64v0l-8 -174c95.333 -40 197 -61.333 305 -64c118.667 0 222.334 33 311.001 99c87.333 65.333 132.333 169 135 311v899z" />
    <glyph glyph-name="h" unicode="h" horiz-adv-x="987" 
d="M125 0l171.999 0.000976562v629c2.66699 188 76.334 282 221.001 282c113.333 1.33301 170.666 -77.667 171.999 -237v-674h172v725c-5.33301 224 -107 335.333 -305 334c-60 0 -112 -15 -156 -45c-43.333 -28.667 -76.666 -66.334 -99.999 -113.001h-4v635h-172v-1536z
" />
    <glyph glyph-name="i" unicode="i" horiz-adv-x="455" 
d="M141 0h172v1044h-172v-1044zM133 1474v-204h189v204h-189z" />
    <glyph glyph-name="j" unicode="j" horiz-adv-x="455" 
d="M-25 -436c28.667 -12.667 61.666 -18.999 98.999 -18.999c92.667 0 156.667 22 192 66c31.333 43.333 47 109 47 197v1236h-172v-1214c0 -52 -5.33301 -87.333 -16 -106c-14 -20.667 -38.667 -31 -74 -31c-27.333 1.33301 -52.666 4.66602 -75.999 9.99902v-139z
M132.999 1474v-204h189v204h-189z" />
    <glyph glyph-name="k" unicode="k" horiz-adv-x="909" 
d="M297 625v911h-172v-1536h172v526h4l379 -526h213l-447 577l410 467h-201z" />
    <glyph glyph-name="l" unicode="l" horiz-adv-x="455" 
d="M141 0h172v1536h-172v-1536z" />
    <glyph glyph-name="m" unicode="m" horiz-adv-x="1479" 
d="M125 0l172.002 0.000976562v645c1.33301 180 67 268.667 197 266c104.667 0 157.667 -64.667 159 -194v-717h172v645c1.33301 180 67 268.667 197 266c105.333 0 158.666 -64.667 159.999 -194v-717h172v725c-6 224 -107 335.333 -303 334
c-116.667 -1.33301 -201.334 -56 -254.001 -164v0c-53.333 108 -135.333 162.667 -246 164c-116 1.33301 -202 -55.334 -258 -170.001h-4l-6 155h-166c4 -73.333 6.66699 -148.333 8 -225v-819z" />
    <glyph glyph-name="n" unicode="n" horiz-adv-x="987" 
d="M125 0l172 0.000976562v629c2.66699 188 76.334 282 221.001 282c113.333 1.33301 170.666 -77.667 171.999 -237v-674h172v725c-5.33301 224 -107 335.333 -305 334c-120 1.33301 -208 -55.334 -264 -170.001h-4l-6 155h-166c4 -73.333 6.66699 -148.333 8 -225v-819z
" />
    <glyph glyph-name="o" unicode="o" horiz-adv-x="987" 
d="M254 522c-1.33301 263.333 78.667 395.666 240 396.999c160.667 -1.33301 240.334 -133.666 239.001 -396.999c1.33301 -264.667 -78.334 -397 -239.001 -397c-161.333 0 -241.333 132.333 -240 397v0zM74 522c0 -165.333 36 -295 108 -389
c70 -96.667 174 -145.667 312 -147c138.667 1.33301 243.667 50.333 315 147c69.333 94 104 223.667 104 389c0 166.667 -34.667 297.667 -104 393c-71.333 94.667 -176.333 142.667 -315 144c-138 -1.33301 -242 -49.333 -312 -144c-72 -95.333 -108 -226.333 -108 -393v0z
" />
    <glyph glyph-name="p" unicode="p" horiz-adv-x="985" 
d="M281 522c-1.33301 263.333 75 395.666 229 396.999c154 -1.33301 230.333 -133.666 229 -396.999c1.33301 -264.667 -75 -397 -229 -397s-230.333 132.333 -229 397v0zM109 -442h172v585h4c64 -106 152.667 -158.333 266 -157c233.333 0 353.333 178.667 360 536
c-6.66699 358 -126.667 537 -360 537c-75.333 -1.33301 -134 -18.333 -176 -51c-44 -34.667 -77 -73.667 -99 -117h-4l-6 153h-166c4 -64 7 -128 9 -192v-1294z" />
    <glyph glyph-name="q" unicode="q" horiz-adv-x="985" 
d="M704 522c2 -264.667 -74.333 -397 -229 -397c-154 0 -230.333 132.333 -229 397c-1.33301 263.333 75 395.666 229 396.999c154.667 -1.33301 231 -133.666 229 -396.999v0zM704 -442h171.999v1294c0 64 3 128 9 192h-166l-6 -153h-4c-22 43.333 -54.333 82.333 -97 117
c-43.333 32.667 -102.666 49.667 -177.999 51c-234.667 0 -354.667 -179 -360 -537c5.33301 -357.333 125.333 -536 360 -536c113.333 -1.33301 202 51 266 157h4v-585z" />
    <glyph glyph-name="r" unicode="r" horiz-adv-x="606" 
d="M125 0h172v553c4 228 79.667 342 227 342c23.333 0 45.333 -2 66 -6v170c-147.333 1.33301 -246.333 -58 -297 -178h-4l-6 163h-166c4 -73.333 6.66699 -148.333 8 -225v-819z" />
    <glyph glyph-name="s" unicode="s" horiz-adv-x="758" 
d="M80 203l-9.99805 -156.001c77.333 -39.333 171.333 -59.666 282 -60.999c120 1.33301 206.667 33.333 260 96c50.667 60 76 135.667 76 227c-2.66699 128.667 -71.667 217.334 -207 266.001l-61 25c-117.333 39.333 -176 98 -176 176c0 42.667 15 77.667 45 105
c28.667 25.333 71 38 127 38c80.667 -1.33301 148.667 -16.333 204 -45l9 148c-60 23.333 -133.667 35.666 -221 36.999c-102.667 -1.33301 -183.334 -30 -242.001 -86c-62.667 -57.333 -94 -129.666 -94 -216.999c0 -64.667 15.667 -116.667 47 -156
c32.667 -40.667 85 -78.334 157 -113.001l115 -51c48 -20.667 83 -43.667 105 -69c18.667 -26 28 -57.667 28 -95c0 -39.333 -16.333 -73.333 -49 -102c-32.667 -30 -82.334 -45 -149.001 -45c-86 1.33301 -168 27.333 -246 78v0z" />
    <glyph glyph-name="t" unicode="t" horiz-adv-x="606" 
d="M586 152c-30 -18 -65.666 -27.001 -106.999 -27.001c-38 0 -65.333 13 -82 39c-17.333 24.667 -26 66.334 -26 125.001v616h215v139h-215v265v0l-172 -52v-213h-166v-139h166v-672c0 -90 21 -154 63 -192c41.333 -36.667 100.666 -55 177.999 -55
c52 1.33301 100.667 10 146 26v140z" />
    <glyph glyph-name="u" unicode="u" horiz-adv-x="987" 
d="M862 1044h-172v-628c-2.66699 -188.667 -76.334 -283 -221.001 -283c-113.333 -2.66699 -170.666 76.666 -171.999 237.999v673h-172v-725c5.33301 -223.333 107 -334.333 305 -333c121.333 -1.33301 209.333 55.334 264 170.001h4l6 -156h166c-5.33301 74 -8 149 -8 225
v819z" />
    <glyph glyph-name="v" unicode="v" horiz-adv-x="872" 
d="M336 0h205l313 1044h-180l-234 -872h-4l-229 872h-189z" />
    <glyph glyph-name="w" unicode="w" horiz-adv-x="1403" 
d="M1384 1044h-172l-196 -872h-4l-207 872h-205l-199 -872h-4l-198 872h-181l277 -1044h196l201 883h4l219 -883h197z" />
    <glyph glyph-name="x" unicode="x" horiz-adv-x="872" 
d="M18 0h189l219 432v0l231 -432h197l-317 555l290 489h-188l-201 -376v0l-200 376h-189l279 -483z" />
    <glyph glyph-name="y" unicode="y" horiz-adv-x="833" 
d="M815 1044h-171.999l-217 -852h-4l-234 852h-180l330 -1060l-41 -160c-14 -52 -30.333 -87 -49 -105c-19.333 -17.333 -41.333 -26 -66 -26c-36.667 1.33301 -68 8 -94 20l-8 -155c34 -8.66699 73 -13 117 -13c64 0 117 18.667 159 56c41.333 38 73.666 100 96.999 186z
" />
    <glyph glyph-name="z" unicode="z" horiz-adv-x="797" 
d="M80 1044v-147h467l-484 -741v-156h670v147h-493l483 742v155h-643z" />
    <glyph glyph-name="braceleft" unicode="{" horiz-adv-x="569" 
d="M551 1548l-121 0.000976562c-58.667 0 -107 -21 -145 -63c-42.667 -42.667 -64 -104.334 -64 -185.001v-346c0 -86 -12.333 -152.667 -37 -200c-26 -50.667 -66.333 -76 -121 -76v-94c54.667 0 95 -24 121 -72c24.667 -49.333 37 -117.666 37 -204.999v-346
c0 -78 21.333 -138.667 64 -182c38 -44 86.333 -66 145 -66h121v95h-78c-38 0 -65.333 11.333 -82 34c-14.667 22 -22 60.333 -22 115v383c0 52 -5.66699 95 -17 129c-10.667 35.333 -25.667 64 -45 86c-18.667 23.333 -37.667 41 -57 53c-20.667 12.667 -39 19.667 -55 21
v4c34 5.33301 71.333 30.666 112 75.999c40 44.667 60.667 115.667 62 213v382c0 56 7.33301 95.667 22 119c16.667 20.667 44 31 82 31h78v94z" />
    <glyph glyph-name="bar" unicode="|" horiz-adv-x="455" 
d="M149 -512h156v2048h-156v-2048z" />
    <glyph glyph-name="braceright" unicode="}" horiz-adv-x="569" 
d="M18 -287h121.001c61.333 0 111.333 22 150 66c38 43.333 57.667 104 59 182v346c0 87.333 13 155.666 39 204.999c26 48 65.667 72 119 72v94c-53.333 0 -93 25.333 -119 76c-26 47.333 -39 114 -39 200v346c-1.33301 80.667 -21 142.334 -59 185.001
c-38.667 42 -88.667 63 -150 63h-121v-94h78c41.333 0 69.333 -10.333 84 -31c14 -23.333 21 -63 21 -119v-382c1.33301 -97.333 23 -168.333 65 -213c19.333 -22 38.666 -39.333 57.999 -52c18.667 -12 35.667 -20 51 -24v-4c-34 -6 -70.333 -30.667 -109 -74
c-18.667 -22 -33.667 -50.667 -45 -86c-13.333 -34 -20 -77 -20 -129v-383c0 -54.667 -7 -93 -21 -115c-14.667 -22.667 -42.667 -34 -84 -34h-78v-95z" />
    <glyph glyph-name="asciitilde" unicode="~" horiz-adv-x="1229" 
d="M1014 664c-32.667 -52 -64.999 -90.3311 -96.999 -114.998c-31.333 -24.667 -59.333 -37 -84 -37c-28.667 -1.33301 -96 24.667 -202 78c-96 50.667 -174 75.334 -234 74.001c-98 1.33301 -183.333 -61 -256 -187l74 -104v0c34 57.333 64 97.666 90 120.999
c26 20 51.333 30 76 30s52.667 -4.66699 84 -14c31.333 -12.667 75.666 -33.334 132.999 -62.001c62.667 -26.667 110.334 -46.334 143.001 -59.001c32.667 -10.667 62.667 -16 90 -16c97.333 -1.33301 182.666 60.667 255.999 186z" />
    <glyph glyph-name="uni20AC" 
d="M995 1391c-40.667 18.667 -81.5 32.166 -122.5 40.499s-84.167 12.5 -129.5 12.5c-81.333 0 -154.166 -14 -218.499 -42s-120 -66.667 -167 -116s-85.5 -106.666 -115.5 -171.999s-52 -135 -66 -209h-141l-21 -100h150c-2.66699 -30 -4 -60 -4 -90s1.33301 -60 4 -90
h-129l-21 -101h160c14 -74.667 35.667 -144.834 65 -210.501s67.5 -122.667 114.5 -171s102.833 -86.166 167.5 -113.499s138.667 -41 222 -41c41.333 0 80.333 2.66699 117 8s75 14.333 115 27l-12 174c-64.667 -34.667 -134.334 -52 -209.001 -52
c-56 0 -105.833 10.667 -149.5 32s-81.334 49.333 -113.001 84s-58 75 -79 121s-36.833 93.333 -47.5 142h475l18 101h-510c-6.66699 60 -6.66699 120 0 180h539l20 100h-542c10.667 50.667 26.167 99.167 46.5 145.5s46.333 87.333 78 123s69.334 63.667 113.001 84
s94.167 30.5 151.5 30.5c12 0 28.333 -1.33301 49 -4s41.167 -6.66699 61.5 -12s39.333 -11.833 57 -19.5s31.5 -16.167 41.5 -25.5z" />
    <glyph glyph-name="uni20AC" unicode="&#x20ac;" 
d="M995 1391c-40.667 18.667 -81.5 32.166 -122.5 40.499s-84.167 12.5 -129.5 12.5c-81.333 0 -154.166 -14 -218.499 -42s-120 -66.667 -167 -116s-85.5 -106.666 -115.5 -171.999s-52 -135 -66 -209h-141l-21 -100h150c-2.66699 -30 -4 -60 -4 -90s1.33301 -60 4 -90
h-129l-21 -101h160c14 -74.667 35.667 -144.834 65 -210.501s67.5 -122.667 114.5 -171s102.833 -86.166 167.5 -113.499s138.667 -41 222 -41c41.333 0 80.333 2.66699 117 8s75 14.333 115 27l-12 174c-64.667 -34.667 -134.334 -52 -209.001 -52
c-56 0 -105.833 10.667 -149.5 32s-81.334 49.333 -113.001 84s-58 75 -79 121s-36.833 93.333 -47.5 142h475l18 101h-510c-6.66699 60 -6.66699 120 0 180h539l20 100h-542c10.667 50.667 26.167 99.167 46.5 145.5s46.333 87.333 78 123s69.334 63.667 113.001 84
s94.167 30.5 151.5 30.5c12 0 28.333 -1.33301 49 -4s41.167 -6.66699 61.5 -12s39.333 -11.833 57 -19.5s31.5 -16.167 41.5 -25.5z" />
    <glyph glyph-name="quotesinglbase" horiz-adv-x="491" 
d="M100 -260h156l135 475h-188z" />
    <glyph glyph-name="quotesinglbase" unicode="&#x201a;" horiz-adv-x="491" 
d="M100 -260h156l135 475h-188z" />
    <glyph glyph-name="florin" 
d="M45 -424c34 -18 75.666 -28.333 124.999 -31c101.333 0 178.333 48 231 144c53.333 96.667 95.666 252.334 126.999 467.001l84 557h203v131h-182l16 112c18 130 38.667 221.667 62 275c12 26 26.333 45 43 57c16 10.667 35 16 57 16c35.333 0 70 -10.667 104 -32l23 137
c-35.333 22 -83.666 33.667 -144.999 35c-83.333 1.33301 -149 -31.667 -197 -99c-48 -66.667 -87 -183.334 -117 -350.001l-26 -151h-201v-131h180l-84 -576c-27.333 -189.333 -53.333 -312 -78 -368c-12 -30 -25.667 -50 -41 -60c-16 -10.667 -33 -16 -51 -16
c-35.333 1.33301 -72.666 10 -111.999 26z" />
    <glyph glyph-name="florin" unicode="&#x192;" 
d="M45 -424c34 -18 75.666 -28.333 124.999 -31c101.333 0 178.333 48 231 144c53.333 96.667 95.666 252.334 126.999 467.001l84 557h203v131h-182l16 112c18 130 38.667 221.667 62 275c12 26 26.333 45 43 57c16 10.667 35 16 57 16c35.333 0 70 -10.667 104 -32l23 137
c-35.333 22 -83.666 33.667 -144.999 35c-83.333 1.33301 -149 -31.667 -197 -99c-48 -66.667 -87 -183.334 -117 -350.001l-26 -151h-201v-131h180l-84 -576c-27.333 -189.333 -53.333 -312 -78 -368c-12 -30 -25.667 -50 -41 -60c-16 -10.667 -33 -16 -51 -16
c-35.333 1.33301 -72.666 10 -111.999 26z" />
    <glyph glyph-name="quotedblbase" horiz-adv-x="1024" 
d="M213 -260h156l135 475h-189zM520 -260h156l135 475h-188z" />
    <glyph glyph-name="quotedblbase" unicode="&#x201e;" horiz-adv-x="1024" 
d="M213 -260h156l135 475h-189zM520 -260h156l135 475h-188z" />
    <glyph glyph-name="ellipsis" unicode="&#x85;" horiz-adv-x="2048" 
d="M244 0h196v229h-196v-229zM926 0h196v229h-196v-229zM1608 0h196v229h-196v-229z" />
    <glyph glyph-name="ellipsis" unicode="&#x2026;" horiz-adv-x="2048" 
d="M244 0h196v229h-196v-229zM926 0h196v229h-196v-229zM1608 0h196v229h-196v-229z" />
    <glyph glyph-name="dagger" 
d="M414 0h155v919h283v140h-283v370h-155v-370h-283v-140h283v-919z" />
    <glyph glyph-name="dagger" unicode="&#x2020;" 
d="M414 0h155v919h283v140h-283v370h-155v-370h-283v-140h283v-919z" />
    <glyph glyph-name="daggerdbl" 
d="M414 0h155v344h283v139h-283v463h283v139h-283v344h-155v-344h-283v-139h283v-463h-283v-139h283v-344z" />
    <glyph glyph-name="daggerdbl" unicode="&#x2021;" 
d="M414 0h155v344h283v139h-283v463h283v139h-283v344h-155v-344h-283v-139h283v-463h-283v-139h283v-344z" />
    <glyph glyph-name="circumflex" horiz-adv-x="418" 
d="M-74 1188h156l127 186v0l127 -186h155l-204 297h-156z" />
    <glyph glyph-name="circumflex" unicode="&#x2c6;" horiz-adv-x="418" 
d="M-74 1188h156l127 186v0l127 -186h155l-204 297h-156z" />
    <glyph glyph-name="perthousand" horiz-adv-x="1823" 
d="M1393 369c0 100.667 10 171.667 30 213c18 38 45.333 56.333 82 55c36.667 1.33301 65.334 -17 86.001 -55c18 -41.333 27 -112.333 27 -213c0 -101.333 -9 -171.666 -27 -210.999c-20.667 -40 -49.334 -59.333 -86.001 -58c-36.667 -1.33301 -64 18 -82 58
c-20 39.333 -30 109.666 -30 210.999v0zM326 -14h102l510 1458h-105zM205 1061c0 100.667 10.333 171.667 31 213c17.333 38 44.333 56.333 81 55c37.333 1.33301 66 -17 86 -55c18 -41.333 27 -112.333 27 -213c0 -101.333 -9 -171.666 -27 -210.999
c-20 -40 -48.667 -59 -86 -57c-36.667 -2 -63.667 17 -81 57c-20.667 39.333 -31 109.666 -31 210.999v0zM1270 369c-1.33301 -258 77 -385.667 235 -383c157.333 -2.66699 236 125 236 383s-78.667 385.667 -236 383c-158 2.66699 -236.333 -125 -235 -383v0zM82 1061
c-1.33301 -258 77 -385.667 235 -383c157.333 -2.66699 236 125 236 383s-78.667 385.667 -236 383c-158 2.66699 -236.333 -125 -235 -383v0zM709 369c-1.33301 -258 77 -385.667 235 -383c157.333 -2.66699 236 125 236 383s-78.667 385.667 -236 383
c-158 2.66699 -236.333 -125 -235 -383v0zM831 369c0 100.667 10.333 171.667 31 213c18 38 45.333 56.333 82 55c36.667 1.33301 65.334 -17 86.001 -55c18 -41.333 27 -112.333 27 -213c0 -101.333 -9 -171.666 -27 -210.999c-20.667 -40 -49.334 -59.333 -86.001 -58
c-36.667 -1.33301 -64 18 -82 58c-20.667 39.333 -31 109.666 -31 210.999v0z" />
    <glyph glyph-name="perthousand" unicode="&#x2030;" horiz-adv-x="1823" 
d="M1393 369c0 100.667 10 171.667 30 213c18 38 45.333 56.333 82 55c36.667 1.33301 65.334 -17 86.001 -55c18 -41.333 27 -112.333 27 -213c0 -101.333 -9 -171.666 -27 -210.999c-20.667 -40 -49.334 -59.333 -86.001 -58c-36.667 -1.33301 -64 18 -82 58
c-20 39.333 -30 109.666 -30 210.999v0zM326 -14h102l510 1458h-105zM205 1061c0 100.667 10.333 171.667 31 213c17.333 38 44.333 56.333 81 55c37.333 1.33301 66 -17 86 -55c18 -41.333 27 -112.333 27 -213c0 -101.333 -9 -171.666 -27 -210.999
c-20 -40 -48.667 -59 -86 -57c-36.667 -2 -63.667 17 -81 57c-20.667 39.333 -31 109.666 -31 210.999v0zM1270 369c-1.33301 -258 77 -385.667 235 -383c157.333 -2.66699 236 125 236 383s-78.667 385.667 -236 383c-158 2.66699 -236.333 -125 -235 -383v0zM82 1061
c-1.33301 -258 77 -385.667 235 -383c157.333 -2.66699 236 125 236 383s-78.667 385.667 -236 383c-158 2.66699 -236.333 -125 -235 -383v0zM709 369c-1.33301 -258 77 -385.667 235 -383c157.333 -2.66699 236 125 236 383s-78.667 385.667 -236 383
c-158 2.66699 -236.333 -125 -235 -383v0zM831 369c0 100.667 10.333 171.667 31 213c18 38 45.333 56.333 82 55c36.667 1.33301 65.334 -17 86.001 -55c18 -41.333 27 -112.333 27 -213c0 -101.333 -9 -171.666 -27 -210.999c-20.667 -40 -49.334 -59.333 -86.001 -58
c-36.667 -1.33301 -64 18 -82 58c-20.667 39.333 -31 109.666 -31 210.999v0z" />
    <glyph glyph-name="Scaron" horiz-adv-x="909" 
d="M747 1223l-0.00390625 174c-31.333 14.667 -70 26 -116 34c-46.667 8.66699 -94 13 -142 13c-110 0 -202.667 -30 -278 -90c-78 -60 -117.667 -149.667 -119 -269c-1.33301 -88.667 19.334 -163 62.001 -223c43.333 -61.333 128 -129.666 254 -204.999
c92.667 -56 154 -104.333 184 -145c16 -22 27 -44.667 33 -68c2.66699 -22.667 4 -48.334 4 -77.001c0 -58.667 -22 -110 -66 -154c-43.333 -46.667 -106 -70.667 -188 -72c-42.667 0 -87.667 9.66699 -135 29c-49.333 18 -95.333 39 -138 63v0v-186
c80.667 -39.333 180.334 -59.666 299.001 -60.999c138 1.33301 242 40.666 312 117.999c69.333 76.667 104 172.334 104 287.001c0 82 -21 156.333 -63 223c-45.333 67.333 -122.666 131.666 -231.999 192.999c-99.333 57.333 -164.666 105.666 -195.999 144.999
c-16.667 20.667 -27.667 41.334 -33 62.001c-8 18.667 -12 39 -12 61c0 62.667 20.333 114 61 154c39.333 38 93.333 57.667 162 59c91.333 -1.33301 172.333 -23 243 -65v0zM377.996 1499h156l204 297h-155l-127 -187v0l-127 187h-156z" />
    <glyph glyph-name="Scaron" unicode="&#x160;" horiz-adv-x="909" 
d="M747 1223l-0.00390625 174c-31.333 14.667 -70 26 -116 34c-46.667 8.66699 -94 13 -142 13c-110 0 -202.667 -30 -278 -90c-78 -60 -117.667 -149.667 -119 -269c-1.33301 -88.667 19.334 -163 62.001 -223c43.333 -61.333 128 -129.666 254 -204.999
c92.667 -56 154 -104.333 184 -145c16 -22 27 -44.667 33 -68c2.66699 -22.667 4 -48.334 4 -77.001c0 -58.667 -22 -110 -66 -154c-43.333 -46.667 -106 -70.667 -188 -72c-42.667 0 -87.667 9.66699 -135 29c-49.333 18 -95.333 39 -138 63v0v-186
c80.667 -39.333 180.334 -59.666 299.001 -60.999c138 1.33301 242 40.666 312 117.999c69.333 76.667 104 172.334 104 287.001c0 82 -21 156.333 -63 223c-45.333 67.333 -122.666 131.666 -231.999 192.999c-99.333 57.333 -164.666 105.666 -195.999 144.999
c-16.667 20.667 -27.667 41.334 -33 62.001c-8 18.667 -12 39 -12 61c0 62.667 20.333 114 61 154c39.333 38 93.333 57.667 162 59c91.333 -1.33301 172.333 -23 243 -65v0zM377.996 1499h156l204 297h-155l-127 -187v0l-127 187h-156z" />
    <glyph glyph-name="guilsinglleft" horiz-adv-x="569" 
d="M326 111h147l-205 421l205 422h-147l-230 -422z" />
    <glyph glyph-name="guilsinglleft" unicode="&#x2039;" horiz-adv-x="569" 
d="M326 111h147l-205 421l205 422h-147l-230 -422z" />
    <glyph glyph-name="OE" horiz-adv-x="1593" 
d="M1477 1429l-558.001 0.000976562c-46 0 -93 3 -141 9c-44.667 4 -82 6 -112 6c-376 -1.33301 -565.333 -249.333 -568 -744c0 -110.667 13 -209.667 39 -297c23.333 -88.667 57 -163.667 101 -225c44.667 -61.333 97 -108.333 157 -141s127 -49.667 201 -51
c53.333 1.33301 109.333 4.66602 168 9.99902c58.667 2.66699 110.334 4 155.001 4h576v156h-471v508h426v155h-426v455h453v155zM843.999 156.001c-61.333 -11.333 -123.001 -16.334 -185.001 -15.001c-248 0 -372 186.333 -372 559
c1.33301 218.667 37.333 373.667 108 465c68.667 88.667 156.667 132.334 264 131.001c60.667 0 122.334 -7.33301 185.001 -22v-1118z" />
    <glyph glyph-name="OE" unicode="&#x152;" horiz-adv-x="1593" 
d="M1477 1429l-558.001 0.000976562c-46 0 -93 3 -141 9c-44.667 4 -82 6 -112 6c-376 -1.33301 -565.333 -249.333 -568 -744c0 -110.667 13 -209.667 39 -297c23.333 -88.667 57 -163.667 101 -225c44.667 -61.333 97 -108.333 157 -141s127 -49.667 201 -51
c53.333 1.33301 109.333 4.66602 168 9.99902c58.667 2.66699 110.334 4 155.001 4h576v156h-471v508h426v155h-426v455h453v155zM843.999 156.001c-61.333 -11.333 -123.001 -16.334 -185.001 -15.001c-248 0 -372 186.333 -372 559
c1.33301 218.667 37.333 373.667 108 465c68.667 88.667 156.667 132.334 264 131.001c60.667 0 122.334 -7.33301 185.001 -22v-1118z" />
    <glyph glyph-name="quoteleft" horiz-adv-x="491" 
d="M100 1061h189l102 475h-155z" />
    <glyph glyph-name="quoteleft" unicode="&#x2018;" horiz-adv-x="491" 
d="M100 1061h189l102 475h-155z" />
    <glyph glyph-name="quoteright" horiz-adv-x="491" 
d="M100 1061h156l135 475h-188z" />
    <glyph glyph-name="quoteright" unicode="&#x2019;" horiz-adv-x="491" 
d="M100 1061h156l135 475h-188z" />
    <glyph glyph-name="quotedblleft" horiz-adv-x="1024" 
d="M520 1061h189l102 475h-156zM213 1061h188l103 475h-156z" />
    <glyph glyph-name="quotedblleft" unicode="&#x201c;" horiz-adv-x="1024" 
d="M520 1061h189l102 475h-156zM213 1061h188l103 475h-156z" />
    <glyph glyph-name="quotedblright" horiz-adv-x="1024" 
d="M213 1061h156l135 475h-189zM520 1061h156l135 475h-188z" />
    <glyph glyph-name="quotedblright" unicode="&#x201d;" horiz-adv-x="1024" 
d="M213 1061h156l135 475h-189zM520 1061h156l135 475h-188z" />
    <glyph glyph-name="bullet" horiz-adv-x="1024" 
d="M154 715c1.33301 -101.333 36.666 -185.333 105.999 -252c66.667 -70 150.667 -105.667 252 -107c102.667 1.33301 188 37 256 107c66.667 66.667 100.667 150.667 102 252c-1.33301 102 -35.333 187.333 -102 256c-68 66.667 -153.333 100.667 -256 102
c-101.333 -1.33301 -185.333 -35.333 -252 -102c-69.333 -68.667 -104.666 -154 -105.999 -256v0z" />
    <glyph glyph-name="bullet" unicode="&#x2022;" horiz-adv-x="1024" 
d="M154 715c1.33301 -101.333 36.666 -185.333 105.999 -252c66.667 -70 150.667 -105.667 252 -107c102.667 1.33301 188 37 256 107c66.667 66.667 100.667 150.667 102 252c-1.33301 102 -35.333 187.333 -102 256c-68 66.667 -153.333 100.667 -256 102
c-101.333 -1.33301 -185.333 -35.333 -252 -102c-69.333 -68.667 -104.666 -154 -105.999 -256v0z" />
    <glyph glyph-name="endash" horiz-adv-x="1024" 
d="M0 506h1024v139h-1024v-139z" />
    <glyph glyph-name="endash" unicode="&#x2013;" horiz-adv-x="1024" 
d="M0 506h1024v139h-1024v-139z" />
    <glyph glyph-name="emdash" horiz-adv-x="2048" 
d="M0 506h2048v139h-2048v-139z" />
    <glyph glyph-name="emdash" unicode="&#x2014;" horiz-adv-x="2048" 
d="M0 506h2048v139h-2048v-139z" />
    <glyph glyph-name="tilde" horiz-adv-x="418" 
d="M401 1454c-10.667 -58.667 -33.668 -87.999 -69.001 -87.999c-11.333 -1.33301 -35.333 7.66699 -72 27c-39.333 20 -70.666 34.333 -93.999 43c-23.333 5.33301 -44 8 -62 8c-114.667 -1.33301 -179.334 -74.333 -194.001 -219h106c2.66699 16 7 30.333 13 43
c4 12 9.33301 20.667 16 26c15.333 12.667 32.333 19 51 19c11.333 1.33301 43.333 -10.334 96 -35.001c38.667 -18 68.334 -29.667 89.001 -35c20 -5.33301 37.667 -8 53 -8c49.333 0 88.333 20.333 117 61c28.667 37.333 47.667 90 57 158h-107z" />
    <glyph glyph-name="tilde" unicode="&#x2dc;" horiz-adv-x="418" 
d="M401 1454c-10.667 -58.667 -33.668 -87.999 -69.001 -87.999c-11.333 -1.33301 -35.333 7.66699 -72 27c-39.333 20 -70.666 34.333 -93.999 43c-23.333 5.33301 -44 8 -62 8c-114.667 -1.33301 -179.334 -74.333 -194.001 -219h106c2.66699 16 7 30.333 13 43
c4 12 9.33301 20.667 16 26c15.333 12.667 32.333 19 51 19c11.333 1.33301 43.333 -10.334 96 -35.001c38.667 -18 68.334 -29.667 89.001 -35c20 -5.33301 37.667 -8 53 -8c49.333 0 88.333 20.333 117 61c28.667 37.333 47.667 90 57 158h-107z" />
    <glyph glyph-name="trademark" horiz-adv-x="2048" 
d="M377 577h131v758h266v94h-663v-94h266v-758zM938 577h131v742h4l279 -742h88l280 742h4v-742h131v852h-209l-249 -655v0l-250 655h-209v-852z" />
    <glyph glyph-name="trademark" unicode="&#x2122;" horiz-adv-x="2048" 
d="M377 577h131v758h266v94h-663v-94h266v-758zM938 577h131v742h4l279 -742h88l280 742h4v-742h131v852h-209l-249 -655v0l-250 655h-209v-852z" />
    <glyph glyph-name="scaron" horiz-adv-x="758" 
d="M80 203l-9.99805 -156.001c77.333 -39.333 171.333 -59.666 282 -60.999c120 1.33301 206.667 33.333 260 96c50.667 60 76 135.667 76 227c-2.66699 128.667 -71.667 217.334 -207 266.001l-61 25c-117.333 39.333 -176 98 -176 176c0 42.667 15 77.667 45 105
c28.667 25.333 71 38 127 38c80.667 -1.33301 148.667 -16.333 204 -45l9 148c-60 23.333 -133.667 35.666 -221 36.999c-102.667 -1.33301 -183.334 -30 -242.001 -86c-62.667 -57.333 -94 -129.666 -94 -216.999c0 -64.667 15.667 -116.667 47 -156
c32.667 -40.667 85 -78.334 157 -113.001l115 -51c48 -20.667 83 -43.667 105 -69c18.667 -26 28 -57.667 28 -95c0 -39.333 -16.333 -73.333 -49 -102c-32.667 -30 -82.334 -45 -149.001 -45c-86 1.33301 -168 27.333 -246 78v0zM303.002 1188h156l204 297h-155l-127 -187
v0l-127 187h-156z" />
    <glyph glyph-name="scaron" unicode="&#x161;" horiz-adv-x="758" 
d="M80 203l-9.99805 -156.001c77.333 -39.333 171.333 -59.666 282 -60.999c120 1.33301 206.667 33.333 260 96c50.667 60 76 135.667 76 227c-2.66699 128.667 -71.667 217.334 -207 266.001l-61 25c-117.333 39.333 -176 98 -176 176c0 42.667 15 77.667 45 105
c28.667 25.333 71 38 127 38c80.667 -1.33301 148.667 -16.333 204 -45l9 148c-60 23.333 -133.667 35.666 -221 36.999c-102.667 -1.33301 -183.334 -30 -242.001 -86c-62.667 -57.333 -94 -129.666 -94 -216.999c0 -64.667 15.667 -116.667 47 -156
c32.667 -40.667 85 -78.334 157 -113.001l115 -51c48 -20.667 83 -43.667 105 -69c18.667 -26 28 -57.667 28 -95c0 -39.333 -16.333 -73.333 -49 -102c-32.667 -30 -82.334 -45 -149.001 -45c-86 1.33301 -168 27.333 -246 78v0zM303.002 1188h156l204 297h-155l-127 -187
v0l-127 187h-156z" />
    <glyph glyph-name="guilsinglright" horiz-adv-x="569" 
d="M96 111h148l229 421l-229 422h-148l205 -422z" />
    <glyph glyph-name="guilsinglright" unicode="&#x203a;" horiz-adv-x="569" 
d="M96 111h148l229 421l-229 422h-148l205 -422z" />
    <glyph glyph-name="oe" horiz-adv-x="1593" 
d="M254 522c-2.66699 263.333 80.666 395.666 249.999 396.999c168 -1.33301 251.333 -133.666 250 -396.999c1.33301 -264.667 -82 -397 -250 -397c-169.333 0 -252.666 132.333 -249.999 397v0zM917 602c3.33301 121.333 25.999 206.667 67.999 256
c40.667 46.667 92.667 70 156 70c144.667 0 216.334 -108.667 215.001 -326h-439zM1528 471.001l-0.00195312 92.0029c-1.33301 325.333 -125.666 490.666 -372.999 495.999c-152.667 0 -259 -72.333 -319 -217v0c-32 73.333 -73.667 128.666 -125 165.999
c-52 34 -121 51 -207 51c-143.333 -1.33301 -250.666 -49.333 -321.999 -144c-72 -95.333 -108 -226.333 -108 -393c0 -165.333 36 -295 108 -389c71.333 -96.667 178.666 -145.667 321.999 -147c152.667 -1.33301 263.334 73.667 332.001 225v0
c66.667 -151.333 180.667 -226.333 342 -225c108.667 1.33301 206 21.666 292 60.999l-8 156v0c-30 -20.667 -66.667 -40 -110 -58c-45.333 -18.667 -95.333 -28 -150 -28c-188.667 1.33301 -283.667 119.333 -285 354h611z" />
    <glyph glyph-name="oe" unicode="&#x153;" horiz-adv-x="1593" 
d="M254 522c-2.66699 263.333 80.666 395.666 249.999 396.999c168 -1.33301 251.333 -133.666 250 -396.999c1.33301 -264.667 -82 -397 -250 -397c-169.333 0 -252.666 132.333 -249.999 397v0zM917 602c3.33301 121.333 25.999 206.667 67.999 256
c40.667 46.667 92.667 70 156 70c144.667 0 216.334 -108.667 215.001 -326h-439zM1528 471.001l-0.00195312 92.0029c-1.33301 325.333 -125.666 490.666 -372.999 495.999c-152.667 0 -259 -72.333 -319 -217v0c-32 73.333 -73.667 128.666 -125 165.999
c-52 34 -121 51 -207 51c-143.333 -1.33301 -250.666 -49.333 -321.999 -144c-72 -95.333 -108 -226.333 -108 -393c0 -165.333 36 -295 108 -389c71.333 -96.667 178.666 -145.667 321.999 -147c152.667 -1.33301 263.334 73.667 332.001 225v0
c66.667 -151.333 180.667 -226.333 342 -225c108.667 1.33301 206 21.666 292 60.999l-8 156v0c-30 -20.667 -66.667 -40 -110 -58c-45.333 -18.667 -95.333 -28 -150 -28c-188.667 1.33301 -283.667 119.333 -285 354h611z" />
    <glyph glyph-name="Ydieresis" horiz-adv-x="1061" 
d="M440 0h180v600l429 829h-199l-318 -632v0l-315 632h-205l428 -829v-600zM292 1570h164v205h-164v-205zM620 1570h164v205h-164v-205z" />
    <glyph glyph-name="Ydieresis" unicode="&#x178;" horiz-adv-x="1061" 
d="M440 0h180v600l429 829h-199l-318 -632v0l-315 632h-205l428 -829v-600zM292 1570h164v205h-164v-205zM620 1570h164v205h-164v-205z" />
    <glyph glyph-name="nonbreakingspace" unicode="&#xa0;" horiz-adv-x="491" 
 />
    <glyph glyph-name="exclamdown" unicode="&#xa1;" horiz-adv-x="721" 
d="M463 -385l-29 1049h-147l-29 -1049h205zM262 815h197v229h-197v-229z" />
    <glyph glyph-name="cent" unicode="&#xa2;" 
d="M475 164c-104 53.333 -156.667 169.333 -158 348c6 264.667 96.333 397.667 271 399zM811 1018c-32.667 14.667 -70.333 25.666 -113 32.999l37 243h-90l-35 -235h-6c-306 -6.66699 -461.667 -189 -467 -547c0 -122.667 26.667 -229.334 80 -320.001
c52 -90 130 -151.333 234 -184l-41 -270h90l39 252c20 -2.66699 40.333 -4 61 -4c86 2.66699 159 17.667 219 45l-8 157c-58.667 -35.333 -129 -53.666 -211 -54.999c-12 0 -25 1.33301 -39 4l115 768c46 -5.33301 88.333 -19.666 127 -42.999z" />
    <glyph glyph-name="sterling" unicode="&#xa3;" 
d="M106 0h788.999v147h-473v541h328v131h-328v189c0 103.333 25.333 179 76 227c46 46 106.667 69 182 69c36.667 -1.33301 75 -7.33301 115 -18c38 -12 69.333 -27 94 -45l18 156c-69.333 30 -149 45.667 -239 47c-114.667 0 -211.667 -34.333 -291 -103
c-83.333 -72 -125.666 -188 -126.999 -348v-174h-144v-131h144v-541h-144v-147z" />
    <glyph glyph-name="currency" unicode="&#xa4;" 
d="M156 715c1.33301 103.333 33.333 186.666 96 249.999c61.333 61.333 141 92.666 239 93.999c100 -1.33301 180.667 -32.666 242 -93.999c61.333 -63.333 92.666 -146.666 93.999 -249.999c-1.33301 -102.667 -32.666 -184.667 -93.999 -246
c-61.333 -64 -142 -96.667 -242 -98c-98 1.33301 -177.667 34 -239 98c-62.667 61.333 -94.667 143.333 -96 246v0zM92 236l109.001 106.001v0c82 -68 178.667 -102 290 -102c113.333 0 211 34 293 102v0l107 -106v0l82 81l-109 107c67.333 82 101.666 179 102.999 291
c-1.33301 112 -35 208.667 -101 290l107 107l-82 82v0l-107 -107v0c-82 67.333 -179.667 101.666 -293 102.999c-111.333 -1.33301 -208 -35.666 -290 -102.999v0l-109 107v0l-82 -82l107 -107c-67.333 -82.667 -101 -179.334 -101 -290.001
c0 -113.333 33.667 -210.333 101 -291l-107 -107z" />
    <glyph glyph-name="yen" unicode="&#xa5;" 
d="M408 0h172v291h307v131h-307v147h307v131h-260l344 729h-189l-291 -626v0l-290 626h-189l348 -729h-264v-131h312v-147h-312v-131h312v-291z" />
    <glyph glyph-name="brokenbar" unicode="&#xa6;" horiz-adv-x="455" 
d="M149 -358h156v716h-156v-716zM149 666h156v716h-156v-716z" />
    <glyph glyph-name="section" unicode="&#xa7;" 
d="M149 -33l-20.001 -158.999c92.667 -49.333 196.334 -75.333 311.001 -78c108 1.33301 197 30.666 267 87.999c69.333 57.333 104.666 138.333 105.999 243c0 36 -3.33301 67 -10 93c-8.66699 24 -19 45.667 -31 65c-26 35.333 -57.333 64 -94 86
c31.333 23.333 67.333 60.333 108 111c19.333 26 36 53.333 50 82c12 28.667 18 57.334 18 86.001c0 66.667 -17 121 -51 163c-35.333 41.333 -90 83.666 -164 126.999l-184 117c-38.667 24.667 -65.334 49.334 -80.001 74.001c-15.333 24.667 -23 49.334 -23 74.001
c0 48.667 18.667 87.334 56 116.001c34 27.333 79 41 135 41c70.667 0 145.667 -23 225 -69v0l20 157c-25.333 15.333 -64 29.666 -116 42.999c-52 11.333 -100 17 -144 17c-114.667 -1.33301 -200.667 -32 -258 -92c-60 -60.667 -90 -133 -90 -217
c-1.33301 -106.667 44.334 -185.334 137.001 -236.001c-73.333 -54.667 -122.333 -106 -147 -154c-26 -47.333 -38.333 -94.333 -37 -141c0 -44.667 13 -88.334 39 -131.001c26 -42 69.667 -83 131 -123l240 -143c36.667 -22 62.334 -45.333 77.001 -70
c14 -26 21 -53.333 21 -82c-2.66699 -116 -75 -175.333 -217 -178c-101.333 0 -193 30 -275 90v0zM304.999 635.001c0 36.667 9.00195 70.667 27.002 102c16 32.667 43.333 64.667 82 96v0c100.667 -51.333 169.334 -97 206.001 -137c36 -42 54 -85 54 -129
c1.33301 -68 -29.334 -134.667 -92.001 -200v0c-110.667 57.333 -185.334 106.333 -224.001 147c-18.667 20.667 -32.334 41 -41.001 61c-8 19.333 -12 39.333 -12 60v0z" />
    <glyph glyph-name="dieresis" unicode="&#xa8;" horiz-adv-x="418" 
d="M-37 1259h164v205h-164v-205zM291 1259h164v205h-164v-205z" />
    <glyph glyph-name="copyright" unicode="&#xa9;" horiz-adv-x="1638" 
d="M1081 575c-10.667 -62.667 -36 -111.667 -76 -147c-42 -39.333 -95 -59 -159 -59c-92.667 1.33301 -165 36 -217 104c-53.333 65.333 -80 146.666 -80 243.999c0 102 25.333 185.333 76 250c50 62.667 122.333 94.667 217 96c64 0 117 -17.667 159 -53
c42.667 -36 69.334 -84 80.001 -144h123c-16 101.333 -57 178 -123 230c-66.667 50 -147 75 -241 75c-134 -1.33301 -238.667 -44.333 -314 -129c-77.333 -84.667 -116 -193.667 -116 -327c0 -130 40 -237.333 120 -322c78 -87.333 183.333 -131.666 316 -132.999
c189.333 4 308.666 109 357.999 315h-123zM90 715c2.66699 -206.667 74.334 -378 215.001 -514c136.667 -140.667 308 -212.334 514 -215.001c207.333 2.66699 380 74.334 518 215.001c138 136 208.333 307.333 211 514c-2.66699 207.333 -73 380 -211 518
s-310.667 208.333 -518 211c-206 -2.66699 -377.333 -73 -514 -211c-140.667 -138 -212.334 -310.667 -215.001 -518v0zM229 715c1.33301 176 58.666 318.667 171.999 428c109.333 112 248.666 168.667 417.999 170c172 -1.33301 312.667 -58 422 -170
c109.333 -109.333 165.333 -252 168 -428c-2.66699 -173.333 -58.667 -315.333 -168 -426c-109.333 -113.333 -250 -170.666 -422 -171.999c-169.333 1.33301 -308.666 58.666 -417.999 171.999c-113.333 110.667 -170.666 252.667 -171.999 426v0z" />
    <glyph glyph-name="ordfeminine" unicode="&#xaa;" horiz-adv-x="606" 
d="M119 1286c40.667 40.667 100.668 62.002 180.001 64.002c44 0 78.667 -7.66699 104 -23c24.667 -16.667 37 -46 37 -88v-41h-75c-113.333 0 -195.333 -18.333 -246 -55c-50.667 -37.333 -75.334 -91.333 -74.001 -162c0 -58.667 19.667 -102.334 59 -131.001
c36 -31.333 85.333 -47 148 -47c98 1.33301 160.667 33.333 188 96h4l7 -88h110c-4 23.333 -6 54.666 -6 93.999v326c-1.33301 140.667 -84 211.667 -248 213c-76.667 0 -143.667 -17 -201 -51zM440.001 1038c0 -38 -13.665 -71.333 -40.998 -100
c-28.667 -31.333 -67.334 -47 -116.001 -47c-38.667 0 -67.334 10.333 -86.001 31c-19.333 18.667 -29 43.667 -29 75c0 79.333 64.667 119 194 119c33.333 0 59.333 -1.33301 78 -4v-74z" />
    <glyph glyph-name="guillemotleft" unicode="&#xab;" horiz-adv-x="1024" 
d="M713 111h147l-205 421l205 422h-147l-230 -422zM393 111h148l-205 421l205 422h-148l-229 -422z" />
    <glyph glyph-name="logicalnot" unicode="&#xac;" horiz-adv-x="1229" 
d="M96 655h897v-422h139v562h-1036v-140z" />
    <glyph glyph-name="hyphen" unicode="&#xad;" horiz-adv-x="606" 
d="M82 502h442v147h-442v-147z" />
    <glyph glyph-name="registered" unicode="&#xae;" horiz-adv-x="1638" 
d="M541 289h139v379h121l235 -379h148l-244 379c68 0 122 22.333 162 67c39.333 42.667 59 98.667 59 168c0 160 -97.667 240 -293 240h-327v-854zM680 1034l166 -0.000976562c54.667 0 97.667 -8 129 -24c31.333 -19.333 47 -53 47 -101
c0 -53.333 -15.667 -88.666 -47 -105.999c-31.333 -19.333 -74.333 -28.333 -129 -27h-166v258zM90 714.999c2.66699 -206.667 74.334 -378 215.001 -514c136.667 -140.667 308 -212.334 514 -215.001c207.333 2.66699 380 74.334 518 215.001
c138 136 208.333 307.333 211 514c-2.66699 207.333 -73 380 -211 518s-310.667 208.333 -518 211c-206 -2.66699 -377.333 -73 -514 -211c-140.667 -138 -212.334 -310.667 -215.001 -518v0zM229 714.999c1.33301 176 58.666 318.667 171.999 428
c109.333 112 248.666 168.667 417.999 170c172 -1.33301 312.667 -58 422 -170c109.333 -109.333 165.333 -252 168 -428c-2.66699 -173.333 -58.667 -315.333 -168 -426c-109.333 -113.333 -250 -170.666 -422 -171.999c-169.333 1.33301 -308.666 58.666 -417.999 171.999
c-113.333 110.667 -170.666 252.667 -171.999 426v0z" />
    <glyph glyph-name="macron" unicode="&#xaf;" horiz-adv-x="418" 
d="M-61 1278h540v123h-540v-123z" />
    <glyph glyph-name="degree" unicode="&#xb0;" horiz-adv-x="819" 
d="M86 1120c1.33301 -90 33.333 -165.667 96 -227c61.333 -62.667 137.333 -94.667 228 -96c92.667 1.33301 169.667 33.333 231 96c60 61.333 90.667 137 92 227c-1.33301 92.667 -32 170 -92 232c-61.333 60 -138.333 90.667 -231 92
c-90.667 -1.33301 -166.667 -32 -228 -92c-62.667 -62 -94.667 -139.333 -96 -232v0zM201 1120c0 58.667 21 108.667 63 150c38.667 38 87.334 57.667 146.001 59c58.667 -1.33301 108.334 -21 149.001 -59c38 -41.333 57.667 -91.333 59 -150
c-1.33301 -58.667 -21 -107 -59 -145c-40.667 -42.667 -90.334 -64 -149.001 -64s-107.334 21.333 -146.001 64c-42 38 -63 86.333 -63 145v0z" />
    <glyph glyph-name="plusminus" unicode="&#xb1;" horiz-adv-x="1229" 
d="M96 553h449v-346h139v346h448v139h-448v344h-139v-344h-449v-139zM96 0h1036v139h-1036v-139z" />
    <glyph glyph-name="twosuperior" unicode="&#xb2;" horiz-adv-x="590" 
d="M41 577h508v107h-363c102.667 92.667 186 188.334 250 287.001c62.667 96.667 94.667 182 96 256c0 61.333 -21 112.333 -63 153c-44 41.333 -106 62.666 -186 63.999c-62 0 -135.333 -18.667 -220 -56l15 -116v0c60 42 119.333 63.667 178 65
c48 -1.33301 82.667 -15 104 -41c22 -26 33 -58 33 -96c0 -105.333 -117.333 -281.333 -352 -528v-95z" />
    <glyph glyph-name="threesuperior" unicode="&#xb3;" horiz-adv-x="590" 
d="M41 600c57.333 -20.667 126.334 -30.998 207.001 -30.998c102 1.33301 177.667 26 227 74c49.333 45.333 74 102.666 74 171.999c0 56 -15 103.667 -45 143c-31.333 38.667 -75.666 61.334 -132.999 68.001v4c50 9.33301 91 31.333 123 66
c31.333 32.667 47.666 77.667 48.999 135c-1.33301 70.667 -26 124.667 -74 162c-49.333 34 -111.333 51 -186 51c-80.667 0 -151.667 -11.667 -213 -35l12 -113c58.667 31.333 115.334 47.666 170.001 48.999c48 0 87 -12 117 -36
c27.333 -24.667 41.666 -58.334 42.999 -101.001c0 -39.333 -17.333 -72 -52 -98c-36.667 -27.333 -90.334 -41 -161.001 -41h-47v-98h86c117.333 -2.66699 177.333 -47.667 180 -135c-1.33301 -49.333 -20.666 -89 -57.999 -119c-36.667 -32.667 -80.334 -49 -131.001 -49
c-54.667 0 -114 16.333 -178 49z" />
    <glyph glyph-name="acute" unicode="&#xb4;" horiz-adv-x="418" 
d="M106 1188h132l208 297h-202z" />
    <glyph glyph-name="mu" unicode="&#xb5;" horiz-adv-x="987" 
d="M125 -442h172v491h4c27.333 -40.667 74.333 -61.667 141 -63c110.667 -1.33301 194.667 55.334 252 170.001h4l6 -156h166c-5.33301 74 -8 149 -8 225v819h-172v-628c-2.66699 -188.667 -76.334 -283 -221.001 -283c-113.333 -2.66699 -170.666 76.666 -171.999 237.999
v673h-172v-1486z" />
    <glyph glyph-name="paragraph" unicode="&#xb6;" horiz-adv-x="1137" 
d="M498 -256l131 -0.000976562v1571h219v-1571h131v1685h-440c-306 1.33301 -461.667 -129.667 -467 -393c1.33301 -109.333 41.333 -198.666 120 -267.999c78 -74 180 -111.667 306 -113v-911z" />
    <glyph glyph-name="cedilla" unicode="&#xb8;" horiz-adv-x="418" 
d="M223 0l-117.001 -174l31 -39c24.667 9.33301 54 14 88 14c60 0 90 -25 90 -75c-2.66699 -53.333 -42 -82 -118 -86c-42.667 1.33301 -85.667 10 -129 26l-29 -71c44.667 -22 104.667 -34.333 180 -37c80.667 1.33301 141.334 19 182.001 53c41.333 34 62 75.667 62 125
c-1.33301 48 -17.666 84.667 -48.999 110c-32.667 24.667 -74.334 37 -125.001 37c-20.667 0 -40.667 -2 -60 -6l84 123h-90z" />
    <glyph glyph-name="onesuperior" unicode="&#xb9;" horiz-adv-x="590" 
d="M258 1298v-721h139v859h-127l-190 -168l59 -93v0l119 123v0z" />
    <glyph glyph-name="ordmasculine" unicode="&#xba;" horiz-adv-x="643" 
d="M178 1122c-1.33301 152 46.667 228 144 228c95.333 0 143 -76 143 -228c0 -150 -47.667 -225 -143 -225c-97.333 0 -145.333 75 -144 225v0zM39 1122c0 -208.667 94.333 -315 283 -319c188 4 282 110.333 282 319c0 210.667 -94 318 -282 322
c-188.667 -4 -283 -111.333 -283 -322v0z" />
    <glyph glyph-name="guillemotright" unicode="&#xbb;" horiz-adv-x="1024" 
d="M164 111h147l230 421l-230 422h-147l205 -422zM483 111h148l229 421l-229 422h-148l205 -422z" />
    <glyph glyph-name="onequarter" unicode="&#xbc;" horiz-adv-x="1477" 
d="M1233 0h131v184h100v99h-100v575h-162l-334 -561v-113h365v-184zM1233 283h-254l250 452h4v-452zM352 -68h131l641 1565h-131zM258 1298v-721h139v859h-127l-190 -168l59 -93v0l119 123v0z" />
    <glyph glyph-name="onehalf" unicode="&#xbd;" horiz-adv-x="1477" 
d="M352 -68h131l641 1565h-131zM258 1298v-721h139v859h-127l-190 -168l59 -93v0l119 123v0zM928 0l508 0.000976562v106h-363c102.667 93.333 186 189 250 287c62.667 97.333 94.667 182.666 96 255.999c0 61.333 -21 112.666 -63 153.999
c-44 40.667 -106.333 61.667 -187 63c-61.333 0 -134.333 -18.333 -219 -55l15 -117v0c60 42.667 119.333 64.667 178 66c47.333 -1.33301 82 -15 104 -41s33 -58 33 -96c0 -105.333 -117.333 -281.666 -352 -528.999v-94z" />
    <glyph glyph-name="threequarters" unicode="&#xbe;" horiz-adv-x="1477" 
d="M1233 0h131v184h100v99h-100v575h-162l-334 -561v-113h365v-184zM1233 283h-254l250 452h4v-452zM352 -68h131l641 1565h-131zM41 600c57.333 -20.667 126.334 -30.998 207.001 -30.998c102 1.33301 177.667 26 227 74c49.333 45.333 74 102.666 74 171.999
c0 56 -15 103.667 -45 143c-31.333 38.667 -75.666 61.334 -132.999 68.001v4c50 9.33301 91 31.333 123 66c31.333 32.667 47.666 77.667 48.999 135c-1.33301 70.667 -26 124.667 -74 162c-49.333 34 -111.333 51 -186 51c-80.667 0 -151.667 -11.667 -213 -35l12 -113
c58.667 31.333 115.334 47.666 170.001 48.999c48 0 87 -12 117 -36c27.333 -24.667 41.666 -58.334 42.999 -101.001c0 -39.333 -17.333 -72 -52 -98c-36.667 -27.333 -90.334 -41 -161.001 -41h-47v-98h86c117.333 -2.66699 177.333 -47.667 180 -135
c-1.33301 -49.333 -20.666 -89 -57.999 -119c-36.667 -32.667 -80.334 -49 -131.001 -49c-54.667 0 -114 16.333 -178 49z" />
    <glyph glyph-name="questiondown" unicode="&#xbf;" horiz-adv-x="909" 
d="M410 674c0 -61.333 -3.66699 -107.001 -11 -137.001c-9.33301 -32 -27 -65 -53 -99l-119 -174c-69.333 -108 -104 -211.667 -104 -311c5.33301 -232 130.333 -349.333 375 -352c91.333 1.33301 179.333 20.333 264 57l-8 168v0c-33.333 -16.667 -71 -31.667 -113 -45
c-42.667 -15.333 -83 -23.666 -121 -24.999c-62.667 1.33301 -113.667 23.333 -153 66c-42.667 42 -64 97.333 -64 166c-2.66699 90 38.333 185.333 123 286c61.333 74 101 137 119 189c10.667 28.667 16.667 60 18 94c1.33301 32.667 2 71.667 2 117h-155zM586 1044h-197
v-229h197v229z" />
    <glyph glyph-name="Agrave" unicode="&#xc0;" horiz-adv-x="1175" 
d="M496 1429l-480 -1429h181l114 373h545l115 -373h188l-467 1429h-196zM360 528l226 713h4l219 -713h-449zM570 1499h131l-137 297h-203z" />
    <glyph glyph-name="Aacute" unicode="&#xc1;" horiz-adv-x="1175" 
d="M496 1429l-480 -1429h181l114 373h545l115 -373h188l-467 1429h-196zM360 528l226 713h4l219 -713h-449zM500 1499h132l208 297h-202z" />
    <glyph glyph-name="Acircumflex" unicode="&#xc2;" horiz-adv-x="1175" 
d="M496 1429l-480 -1429h181l114 373h545l115 -373h188l-467 1429h-196zM360 528l226 713h4l219 -713h-449zM314 1499h156l127 186v0l127 -186h155l-204 297h-156z" />
    <glyph glyph-name="Atilde" unicode="&#xc3;" horiz-adv-x="1175" 
d="M496 1429l-480 -1429h181l114 373h545l115 -373h188l-467 1429h-196zM360 528l226 713h4l219 -713h-449zM787 1765c-10.667 -58.667 -33.668 -87.999 -69.001 -87.999c-11.333 -1.33301 -35.333 7.66699 -72 27c-39.333 20 -70.666 34.333 -93.999 43
c-23.333 5.33301 -44 8 -62 8c-114.667 -1.33301 -179.334 -74.333 -194.001 -219h106c2.66699 16 7 30.333 13 43c4 12 9.33301 20.667 16 26c15.333 12.667 32.333 19 51 19c11.333 1.33301 43.333 -10.334 96 -35.001c38.667 -18 68.334 -29.667 89.001 -35
c20 -5.33301 37.667 -8 53 -8c49.333 0 88.333 20.333 117 61c28.667 37.333 47.667 90 57 158h-107z" />
    <glyph glyph-name="Adieresis" unicode="&#xc4;" horiz-adv-x="1175" 
d="M496 1429l-480 -1429h181l114 373h545l115 -373h188l-467 1429h-196zM360 528l226 713h4l219 -713h-449zM353 1570h164v205h-164v-205zM681 1570h164v205h-164v-205z" />
    <glyph glyph-name="Aring" unicode="&#xc5;" horiz-adv-x="1175" 
d="M496 1429l-480 -1429h181l114 373h545l115 -373h188l-467 1429h-196zM360 528l226 713h4l219 -713h-449zM385 1690c1.33301 -58.667 22.333 -108.667 63 -150c41.333 -42 91.333 -63 150 -63c61.333 0 111.666 21 150.999 63c40 41.333 60.667 91.333 62 150
c-1.33301 61.333 -22 112 -62 152c-39.333 39.333 -89.666 59.666 -150.999 60.999c-58.667 -1.33301 -108.667 -21.666 -150 -60.999c-40.667 -40 -61.667 -90.667 -63 -152v0zM479 1690c0 34 12.333 62.667 37 86c22 22 49.333 33 82 33c34 0 62.667 -11 86 -33
c22 -23.333 33 -52 33 -86c0 -32.667 -11 -60 -33 -82c-23.333 -24.667 -52 -37 -86 -37c-32.667 0 -60 12.333 -82 37c-24.667 22 -37 49.333 -37 82v0z" />
    <glyph glyph-name="AE" unicode="&#xc6;" horiz-adv-x="1593" 
d="M16 0h201l182 373h445v-373h651v156h-471v508h428v155h-428v455h453v155h-748zM840 1298h4v-770h-377z" />
    <glyph glyph-name="Ccedilla" unicode="&#xc7;" horiz-adv-x="1100" 
d="M1001 209c-76 -45.333 -161.337 -68 -256.004 -68c-155.333 1.33301 -270.666 58 -345.999 170c-74.667 109.333 -112 257 -112 443c1.33301 174.667 47 307.667 137 399c86 90 189 135 309 135c101.333 0 190.666 -24 267.999 -72v0v177c-70.667 34 -160.667 51 -270 51
c-190 -1.33301 -341.667 -66.333 -455 -195c-117.333 -129.333 -176.666 -306.666 -177.999 -531.999c0 -176 40.333 -330.333 121 -463c82 -134 210.333 -219.333 385 -256l-115 -172l31 -39c24.667 9.33301 54 14 88 14c60 0 90 -25 90 -75
c-2.66699 -53.333 -42 -82 -118 -86c-42.667 1.33301 -85.667 10 -129 26l-29 -71c44.667 -22 104.667 -34.333 180 -37c80.667 1.33301 141.334 19 182.001 53c41.333 34 62 75.667 62 125c-1.33301 48 -17.666 84.667 -48.999 110c-33.333 24.667 -75 37 -125 37
c-20.667 0 -40.667 -2 -60 -6l76 111c16.667 -1.33301 34.334 -2 53.001 -2c86 1.33301 172.667 15.666 260 42.999v180z" />
    <glyph glyph-name="Egrave" unicode="&#xc8;" horiz-adv-x="948" 
d="M158 0h692v156h-512v508h463v155h-463v455h485v155h-665v-1429zM450 1499h131l-137 297h-203z" />
    <glyph glyph-name="Eacute" unicode="&#xc9;" horiz-adv-x="948" 
d="M158 0h692v156h-512v508h463v155h-463v455h485v155h-665v-1429zM380 1499h132l208 297h-202z" />
    <glyph glyph-name="Ecircumflex" unicode="&#xca;" horiz-adv-x="948" 
d="M158 0h692v156h-512v508h463v155h-463v455h485v155h-665v-1429zM194 1499h156l127 186v0l127 -186h155l-204 297h-156z" />
    <glyph glyph-name="Edieresis" unicode="&#xcb;" horiz-adv-x="948" 
d="M158 0h692v156h-512v508h463v155h-463v455h485v155h-665v-1429zM233 1570h164v205h-164v-205zM561 1570h164v205h-164v-205z" />
    <glyph glyph-name="Igrave" unicode="&#xcc;" horiz-adv-x="496" 
d="M158 0h180v1429h-180v-1429zM216 1499h131l-137 297h-203z" />
    <glyph glyph-name="Iacute" unicode="&#xcd;" horiz-adv-x="496" 
d="M158 0h180v1429h-180v-1429zM146 1499h132l208 297h-202z" />
    <glyph glyph-name="Icircumflex" unicode="&#xce;" horiz-adv-x="496" 
d="M158 0h180v1429h-180v-1429zM-39 1499h156l127 186v0l127 -186h155l-204 297h-156z" />
    <glyph glyph-name="Idieresis" unicode="&#xcf;" horiz-adv-x="496" 
d="M158 0h180v1429h-180v-1429zM-3 1570h164v205h-164v-205zM325 1570h164v205h-164v-205z" />
    <glyph glyph-name="Eth" unicode="&#xd0;" horiz-adv-x="1175" 
d="M137 0l222.998 -0.000976562c266.667 2.66699 456.667 74.334 570 215.001c110.667 136.667 165.334 310.667 164.001 522c-1.33301 161.333 -28.666 289 -81.999 383c-54.667 96 -115.667 165 -183 207c-39.333 30 -88.333 54.667 -147 74c-60 18.667 -138 28 -234 28
h-311v-606h-157v-131h157v-692zM316.998 1274h109c174.667 -2.66699 299 -54.667 373 -156c72 -99.333 107.333 -226.333 106 -381c-1.33301 -382 -161 -575.667 -479 -581h-109v536h330v131h-330v451z" />
    <glyph glyph-name="Ntilde" unicode="&#xd1;" horiz-adv-x="1253" 
d="M158 0h172v1171h4l538 -1171h224v1429h-172v-1179h-5l-538 1179h-223v-1429zM824 1765c-10.667 -58.667 -33.668 -87.999 -69.001 -87.999c-11.333 -1.33301 -35.333 7.66699 -72 27c-39.333 20 -70.666 34.333 -93.999 43c-23.333 5.33301 -44 8 -62 8
c-114.667 -1.33301 -179.334 -74.333 -194.001 -219h106c2.66699 16 7 30.333 13 43c4 12 9.33301 20.667 16 26c15.333 12.667 32.333 19 51 19c11.333 1.33301 43.333 -10.334 96 -35.001c38.667 -18 68.334 -29.667 89.001 -35c20 -5.33301 37.667 -8 53 -8
c49.333 0 88.333 20.333 117 61c28.667 37.333 47.667 90 57 158h-107z" />
    <glyph glyph-name="Ograve" unicode="&#xd2;" horiz-adv-x="1253" 
d="M98 700c0 -222 48.001 -396 144.001 -522c91.333 -126.667 216.666 -190.667 375.999 -192c352.667 1.33301 531.667 249 537 743c-8 468 -181.333 706.333 -520 715c-354 -1.33301 -533 -249.333 -537 -744v0zM287.001 700c1.33301 218.667 36 373.664 104 464.997
c65.333 88.667 146.666 132.334 243.999 131.001c120 -2.66699 206 -60.667 258 -174c49.333 -112 74 -243 74 -393c-1.33301 -217.333 -35.666 -371.666 -102.999 -462.999c-66.667 -90 -148.667 -134.333 -246 -133c-118.667 2.66699 -204 61.334 -256 176.001
c-51.333 112 -76.333 242.333 -75 391v0zM607.001 1499h131l-137 297h-203z" />
    <glyph glyph-name="Oacute" unicode="&#xd3;" horiz-adv-x="1253" 
d="M98 700c0 -222 48.001 -396 144.001 -522c91.333 -126.667 216.666 -190.667 375.999 -192c352.667 1.33301 531.667 249 537 743c-8 468 -181.333 706.333 -520 715c-354 -1.33301 -533 -249.333 -537 -744v0zM287.001 700c1.33301 218.667 36 373.664 104 464.997
c65.333 88.667 146.666 132.334 243.999 131.001c120 -2.66699 206 -60.667 258 -174c49.333 -112 74 -243 74 -393c-1.33301 -217.333 -35.666 -371.666 -102.999 -462.999c-66.667 -90 -148.667 -134.333 -246 -133c-118.667 2.66699 -204 61.334 -256 176.001
c-51.333 112 -76.333 242.333 -75 391v0zM537.001 1499h132l208 297h-202z" />
    <glyph glyph-name="Ocircumflex" unicode="&#xd4;" horiz-adv-x="1253" 
d="M98 700c0 -222 48.001 -396 144.001 -522c91.333 -126.667 216.666 -190.667 375.999 -192c352.667 1.33301 531.667 249 537 743c-8 468 -181.333 706.333 -520 715c-354 -1.33301 -533 -249.333 -537 -744v0zM287.001 700c1.33301 218.667 36 373.664 104 464.997
c65.333 88.667 146.666 132.334 243.999 131.001c120 -2.66699 206 -60.667 258 -174c49.333 -112 74 -243 74 -393c-1.33301 -217.333 -35.666 -371.666 -102.999 -462.999c-66.667 -90 -148.667 -134.333 -246 -133c-118.667 2.66699 -204 61.334 -256 176.001
c-51.333 112 -76.333 242.333 -75 391v0zM352.001 1499h156l127 186v0l127 -186h155l-204 297h-156z" />
    <glyph glyph-name="Otilde" unicode="&#xd5;" horiz-adv-x="1253" 
d="M98 700c0 -222 48.001 -396 144.001 -522c91.333 -126.667 216.666 -190.667 375.999 -192c352.667 1.33301 531.667 249 537 743c-8 468 -181.333 706.333 -520 715c-354 -1.33301 -533 -249.333 -537 -744v0zM287.001 700c1.33301 218.667 36 373.664 104 464.997
c65.333 88.667 146.666 132.334 243.999 131.001c120 -2.66699 206 -60.667 258 -174c49.333 -112 74 -243 74 -393c-1.33301 -217.333 -35.666 -371.666 -102.999 -462.999c-66.667 -90 -148.667 -134.333 -246 -133c-118.667 2.66699 -204 61.334 -256 176.001
c-51.333 112 -76.333 242.333 -75 391v0zM825.001 1765c-10.667 -58.667 -33.668 -87.999 -69.001 -87.999c-11.333 -1.33301 -35.333 7.66699 -72 27c-39.333 20 -70.666 34.333 -93.999 43c-23.333 5.33301 -44 8 -62 8c-114.667 -1.33301 -179.334 -74.333 -194.001 -219
h106c2.66699 16 7 30.333 13 43c4 12 9.33301 20.667 16 26c15.333 12.667 32.333 19 51 19c11.333 1.33301 43.333 -10.334 96 -35.001c38.667 -18 68.334 -29.667 89.001 -35c20 -5.33301 37.667 -8 53 -8c49.333 0 88.333 20.333 117 61c28.667 37.333 47.667 90 57 158
h-107z" />
    <glyph glyph-name="Odieresis" unicode="&#xd6;" horiz-adv-x="1253" 
d="M98 700c0 -222 48.001 -396 144.001 -522c91.333 -126.667 216.666 -190.667 375.999 -192c352.667 1.33301 531.667 249 537 743c-8 468 -181.333 706.333 -520 715c-354 -1.33301 -533 -249.333 -537 -744v0zM287.001 700c1.33301 218.667 36 373.664 104 464.997
c65.333 88.667 146.666 132.334 243.999 131.001c120 -2.66699 206 -60.667 258 -174c49.333 -112 74 -243 74 -393c-1.33301 -217.333 -35.666 -371.666 -102.999 -462.999c-66.667 -90 -148.667 -134.333 -246 -133c-118.667 2.66699 -204 61.334 -256 176.001
c-51.333 112 -76.333 242.333 -75 391v0zM390.001 1570h164v205h-164v-205zM718.001 1570h164v205h-164v-205z" />
    <glyph glyph-name="multiply" unicode="&#xd7;" horiz-adv-x="1229" 
d="M244 47l370 369v0l371 -369v0l100 102l-368 369l368 369l-100 102v0l-371 -369v0l-370 369v0l-101 -102l369 -369l-369 -369z" />
    <glyph glyph-name="Oslash" unicode="&#xd8;" horiz-adv-x="1253" 
d="M326 403c-26 92 -38.999 190.999 -38.999 296.999c1.33301 218.667 36 373.667 104 465c65.333 88.667 146.666 132.334 243.999 131.001c120 -2.66699 205.333 -62 256 -178zM928.001 1026c26 -90 38.999 -189.001 38.999 -297.001
c-1.33301 -217.333 -35.666 -371.666 -102.999 -462.999c-66.667 -90 -148.667 -134.333 -246 -133c-120 2.66699 -205.333 62 -256 178zM27 24.998l67.001 -54v0l154 195v0c91.333 -118.667 214.666 -178.667 369.999 -180c352.667 1.33301 531.667 249 537 743
c0 186 -33.333 339 -100 459l172 217l-68 53v0l-154 -194v0c-94 118.667 -217.333 178.667 -370 180c-354 -1.33301 -533 -249.333 -537 -744c0 -185.333 33.667 -338 101 -458z" />
    <glyph glyph-name="Ugrave" unicode="&#xd9;" horiz-adv-x="1212" 
d="M1055 1429h-181.001v-929c0 -112 -23 -201 -69 -267c-45.333 -66.667 -111.666 -100 -198.999 -100c-84.667 0 -150 33.333 -196 100c-48 66 -72 155 -72 267v929h-180v-903c-2.66699 -126.667 16.333 -233 57 -319c30 -61.333 77.667 -112.666 143 -153.999
c63.333 -43.333 146 -65.666 248 -66.999c104 1.33301 188.667 23.666 254 66.999c62.667 41.333 108.334 92.666 137.001 153.999c41.333 86 60.666 192.333 57.999 319v903zM580.999 1499h131l-137 297h-203z" />
    <glyph glyph-name="Uacute" unicode="&#xda;" horiz-adv-x="1212" 
d="M1055 1429h-181.001v-929c0 -112 -23 -201 -69 -267c-45.333 -66.667 -111.666 -100 -198.999 -100c-84.667 0 -150 33.333 -196 100c-48 66 -72 155 -72 267v929h-180v-903c-2.66699 -126.667 16.333 -233 57 -319c30 -61.333 77.667 -112.666 143 -153.999
c63.333 -43.333 146 -65.666 248 -66.999c104 1.33301 188.667 23.666 254 66.999c62.667 41.333 108.334 92.666 137.001 153.999c41.333 86 60.666 192.333 57.999 319v903zM510.999 1499h132l208 297h-202z" />
    <glyph glyph-name="Ucircumflex" unicode="&#xdb;" horiz-adv-x="1212" 
d="M1055 1429h-181.001v-929c0 -112 -23 -201 -69 -267c-45.333 -66.667 -111.666 -100 -198.999 -100c-84.667 0 -150 33.333 -196 100c-48 66 -72 155 -72 267v929h-180v-903c-2.66699 -126.667 16.333 -233 57 -319c30 -61.333 77.667 -112.666 143 -153.999
c63.333 -43.333 146 -65.666 248 -66.999c104 1.33301 188.667 23.666 254 66.999c62.667 41.333 108.334 92.666 137.001 153.999c41.333 86 60.666 192.333 57.999 319v903zM324.999 1499h156l127 186v0l127 -186h155l-204 297h-156z" />
    <glyph glyph-name="Udieresis" unicode="&#xdc;" horiz-adv-x="1212" 
d="M1055 1429h-181.001v-929c0 -112 -23 -201 -69 -267c-45.333 -66.667 -111.666 -100 -198.999 -100c-84.667 0 -150 33.333 -196 100c-48 66 -72 155 -72 267v929h-180v-903c-2.66699 -126.667 16.333 -233 57 -319c30 -61.333 77.667 -112.666 143 -153.999
c63.333 -43.333 146 -65.666 248 -66.999c104 1.33301 188.667 23.666 254 66.999c62.667 41.333 108.334 92.666 137.001 153.999c41.333 86 60.666 192.333 57.999 319v903zM363.999 1570h164v205h-164v-205zM691.999 1570h164v205h-164v-205z" />
    <glyph glyph-name="Yacute" unicode="&#xdd;" horiz-adv-x="1061" 
d="M440 0h180v600l429 829h-199l-318 -632v0l-315 632h-205l428 -829v-600zM441 1499h132l208 297h-202z" />
    <glyph glyph-name="Thorn" unicode="&#xde;" horiz-adv-x="985" 
d="M158 0h180v352h121c308.667 1.33301 463.667 143.333 465 426c-1.33301 126 -39 224.333 -113 295c-35.333 36.667 -77.666 64.667 -126.999 84c-50.667 18 -111.334 27 -182.001 27h-164v245h-180v-1429zM338 1036h102c194 2.66699 292.333 -88.666 295 -273.999
c0 -80.667 -21.667 -144.334 -65 -191.001c-46.667 -47.333 -124.667 -71 -234 -71h-98v536z" />
    <glyph glyph-name="germandbls" unicode="&#xdf;" horiz-adv-x="985" 
d="M117 0l171.999 0.00292969v1102c0 42 2.66699 81.667 8 119c4 36.667 13 70.667 27 102c13.333 31.333 34.333 56 63 74c26 16 61.667 24 107 24c128 -2.66699 191.333 -80.334 190 -233.001c0 -118.667 -18.333 -199.334 -55 -242.001
c-40 -43.333 -106.333 -64.333 -199 -63v-148c54.667 -1.33301 102.334 -5.33301 143.001 -12c40 -9.33301 72.333 -25.666 97 -48.999c24.667 -22 43 -55.667 55 -101c9.33301 -46 14 -107.333 14 -184c0 -50.667 -4 -92.334 -12 -125.001c-8 -34 -21 -61.333 -39 -82
c-35.333 -39.333 -83 -58.333 -143 -57c-58.667 1.33301 -103 9.33301 -133 24l-9 -149c40 -8 86 -12.667 138 -14c132 2.66699 227.333 47 286 133c56 84.667 84 184.334 84 299.001c0 147.333 -24.333 249.666 -73 306.999c-52 56 -125.333 87.333 -220 94v4
c93.333 38.667 157 83.667 191 135c31.333 52 47 119.667 47 203c0 117.333 -28.667 213 -86 287c-58.667 73.333 -150.667 110.666 -276 111.999c-134 -1.33301 -230.333 -42 -289 -122c-60 -82 -89.333 -189.333 -88 -322v-1116z" />
    <glyph glyph-name="agrave" unicode="&#xe0;" horiz-adv-x="948" 
d="M184 811c66 70.667 155.667 106.668 269 108.001c36.667 0 70.667 -4.66699 102 -14s55.333 -26.333 72 -51c16 -22 26.667 -46 32 -72c4.66699 -26 7 -58 7 -96v-47h-101c-176 -1.33301 -302.333 -34 -379 -98c-76 -66 -113.333 -150.667 -112 -254
c0 -100 29.333 -174.667 88 -224c54.667 -51.333 125.667 -77 213 -77c79.333 1.33301 142.666 17.666 189.999 48.999c46.667 30 81 65.333 103 106h4l10 -141h156c-6 40.667 -9 94 -9 160v544c0 72.667 -8.66699 128.667 -26 168c-19.333 38.667 -40.666 68 -63.999 88
c-16 19.333 -46.667 40 -92 62c-22 10.667 -48.667 19.667 -80 27c-32.667 6.66699 -68 10 -106 10c-106.667 -1.33301 -205 -30 -295 -86zM666 381.001c0 -74 -21.333 -135.333 -64 -184c-43.333 -52 -103.333 -78.667 -180 -80c-117.333 2.66699 -176 63.334 -176 182.001
c0 62.667 25.333 114.667 76 156c48.667 39.333 123 59.666 223 60.999c48.667 0 89 -1.33301 121 -4v-131zM450 1188h131l-137 297h-203z" />
    <glyph glyph-name="aacute" unicode="&#xe1;" horiz-adv-x="948" 
d="M184 811c66 70.667 155.667 106.668 269 108.001c36.667 0 70.667 -4.66699 102 -14s55.333 -26.333 72 -51c16 -22 26.667 -46 32 -72c4.66699 -26 7 -58 7 -96v-47h-101c-176 -1.33301 -302.333 -34 -379 -98c-76 -66 -113.333 -150.667 -112 -254
c0 -100 29.333 -174.667 88 -224c54.667 -51.333 125.667 -77 213 -77c79.333 1.33301 142.666 17.666 189.999 48.999c46.667 30 81 65.333 103 106h4l10 -141h156c-6 40.667 -9 94 -9 160v544c0 72.667 -8.66699 128.667 -26 168c-19.333 38.667 -40.666 68 -63.999 88
c-16 19.333 -46.667 40 -92 62c-22 10.667 -48.667 19.667 -80 27c-32.667 6.66699 -68 10 -106 10c-106.667 -1.33301 -205 -30 -295 -86zM666 381.001c0 -74 -21.333 -135.333 -64 -184c-43.333 -52 -103.333 -78.667 -180 -80c-117.333 2.66699 -176 63.334 -176 182.001
c0 62.667 25.333 114.667 76 156c48.667 39.333 123 59.666 223 60.999c48.667 0 89 -1.33301 121 -4v-131zM380 1188h132l208 297h-202z" />
    <glyph glyph-name="acircumflex" unicode="&#xe2;" horiz-adv-x="948" 
d="M184 811c66 70.667 155.667 106.668 269 108.001c36.667 0 70.667 -4.66699 102 -14s55.333 -26.333 72 -51c16 -22 26.667 -46 32 -72c4.66699 -26 7 -58 7 -96v-47h-101c-176 -1.33301 -302.333 -34 -379 -98c-76 -66 -113.333 -150.667 -112 -254
c0 -100 29.333 -174.667 88 -224c54.667 -51.333 125.667 -77 213 -77c79.333 1.33301 142.666 17.666 189.999 48.999c46.667 30 81 65.333 103 106h4l10 -141h156c-6 40.667 -9 94 -9 160v544c0 72.667 -8.66699 128.667 -26 168c-19.333 38.667 -40.666 68 -63.999 88
c-16 19.333 -46.667 40 -92 62c-22 10.667 -48.667 19.667 -80 27c-32.667 6.66699 -68 10 -106 10c-106.667 -1.33301 -205 -30 -295 -86zM666 381.001c0 -74 -21.333 -135.333 -64 -184c-43.333 -52 -103.333 -78.667 -180 -80c-117.333 2.66699 -176 63.334 -176 182.001
c0 62.667 25.333 114.667 76 156c48.667 39.333 123 59.666 223 60.999c48.667 0 89 -1.33301 121 -4v-131zM195 1188h156l127 186v0l127 -186h155l-204 297h-156z" />
    <glyph glyph-name="atilde" unicode="&#xe3;" horiz-adv-x="948" 
d="M184 811c66 70.667 155.667 106.668 269 108.001c36.667 0 70.667 -4.66699 102 -14s55.333 -26.333 72 -51c16 -22 26.667 -46 32 -72c4.66699 -26 7 -58 7 -96v-47h-101c-176 -1.33301 -302.333 -34 -379 -98c-76 -66 -113.333 -150.667 -112 -254
c0 -100 29.333 -174.667 88 -224c54.667 -51.333 125.667 -77 213 -77c79.333 1.33301 142.666 17.666 189.999 48.999c46.667 30 81 65.333 103 106h4l10 -141h156c-6 40.667 -9 94 -9 160v544c0 72.667 -8.66699 128.667 -26 168c-19.333 38.667 -40.666 68 -63.999 88
c-16 19.333 -46.667 40 -92 62c-22 10.667 -48.667 19.667 -80 27c-32.667 6.66699 -68 10 -106 10c-106.667 -1.33301 -205 -30 -295 -86zM666 381.001c0 -74 -21.333 -135.333 -64 -184c-43.333 -52 -103.333 -78.667 -180 -80c-117.333 2.66699 -176 63.334 -176 182.001
c0 62.667 25.333 114.667 76 156c48.667 39.333 123 59.666 223 60.999c48.667 0 89 -1.33301 121 -4v-131zM668 1454c-10.667 -58.667 -33.668 -87.999 -69.001 -87.999c-11.333 -1.33301 -35.333 7.66699 -72 27c-39.333 20 -70.666 34.333 -93.999 43
c-23.333 5.33301 -44 8 -62 8c-114.667 -1.33301 -179.334 -74.333 -194.001 -219h106c2.66699 16 7 30.333 13 43c4 12 9.33301 20.667 16 26c15.333 12.667 32.333 19 51 19c11.333 1.33301 43.333 -10.334 96 -35.001c38.667 -18 68.334 -29.667 89.001 -35
c20 -5.33301 37.667 -8 53 -8c49.333 0 88.333 20.333 117 61c28.667 37.333 47.667 90 57 158h-107z" />
    <glyph glyph-name="adieresis" unicode="&#xe4;" horiz-adv-x="948" 
d="M184 811c66 70.667 155.667 106.668 269 108.001c36.667 0 70.667 -4.66699 102 -14s55.333 -26.333 72 -51c16 -22 26.667 -46 32 -72c4.66699 -26 7 -58 7 -96v-47h-101c-176 -1.33301 -302.333 -34 -379 -98c-76 -66 -113.333 -150.667 -112 -254
c0 -100 29.333 -174.667 88 -224c54.667 -51.333 125.667 -77 213 -77c79.333 1.33301 142.666 17.666 189.999 48.999c46.667 30 81 65.333 103 106h4l10 -141h156c-6 40.667 -9 94 -9 160v544c0 72.667 -8.66699 128.667 -26 168c-19.333 38.667 -40.666 68 -63.999 88
c-16 19.333 -46.667 40 -92 62c-22 10.667 -48.667 19.667 -80 27c-32.667 6.66699 -68 10 -106 10c-106.667 -1.33301 -205 -30 -295 -86zM666 381.001c0 -74 -21.333 -135.333 -64 -184c-43.333 -52 -103.333 -78.667 -180 -80c-117.333 2.66699 -176 63.334 -176 182.001
c0 62.667 25.333 114.667 76 156c48.667 39.333 123 59.666 223 60.999c48.667 0 89 -1.33301 121 -4v-131zM233 1259h164v205h-164v-205zM561 1259h164v205h-164v-205z" />
    <glyph glyph-name="aring" unicode="&#xe5;" horiz-adv-x="948" 
d="M184 811c66 70.667 155.667 106.668 269 108.001c36.667 0 70.667 -4.66699 102 -14s55.333 -26.333 72 -51c16 -22 26.667 -46 32 -72c4.66699 -26 7 -58 7 -96v-47h-101c-176 -1.33301 -302.333 -34 -379 -98c-76 -66 -113.333 -150.667 -112 -254
c0 -100 29.333 -174.667 88 -224c54.667 -51.333 125.667 -77 213 -77c79.333 1.33301 142.666 17.666 189.999 48.999c46.667 30 81 65.333 103 106h4l10 -141h156c-6 40.667 -9 94 -9 160v544c0 72.667 -8.66699 128.667 -26 168c-19.333 38.667 -40.666 68 -63.999 88
c-16 19.333 -46.667 40 -92 62c-22 10.667 -48.667 19.667 -80 27c-32.667 6.66699 -68 10 -106 10c-106.667 -1.33301 -205 -30 -295 -86zM666 381.001c0 -74 -21.333 -135.333 -64 -184c-43.333 -52 -103.333 -78.667 -180 -80c-117.333 2.66699 -176 63.334 -176 182.001
c0 62.667 25.333 114.667 76 156c48.667 39.333 123 59.666 223 60.999c48.667 0 89 -1.33301 121 -4v-131zM292 1368c1.33301 -58.667 22.333 -108.667 63 -150c41.333 -42 91.333 -63 150 -63c61.333 0 111.666 21 150.999 63c40 41.333 60.667 91.333 62 150
c-1.33301 61.333 -22 112 -62 152c-39.333 39.333 -89.666 59.666 -150.999 60.999c-58.667 -1.33301 -108.667 -21.666 -150 -60.999c-40.667 -40 -61.667 -90.667 -63 -152v0zM386 1368c0 34 12.333 62.667 37 86c22 22 49.333 33 82 33c34 0 62.667 -11 86 -33
c22 -23.333 33 -52 33 -86c0 -32.667 -11 -60 -33 -82c-23.333 -24.667 -52 -37 -86 -37c-32.667 0 -60 12.333 -82 37c-24.667 22 -37 49.333 -37 82v0z" />
    <glyph glyph-name="ae" unicode="&#xe6;" horiz-adv-x="1479" 
d="M823 647c4 100 26.667 171.667 68 215c40.667 44 89 66 145 66c136.667 -4 205 -97.667 205 -281h-418zM184 811c67.333 70.667 154.668 106.669 262.001 108.002c143.333 0 217.333 -79.667 222 -239v-33h-103c-176 -1.33301 -302.333 -34.666 -379 -99.999
c-76 -66 -113.333 -152.667 -112 -260c0 -100 29.333 -174.667 88 -224c54.667 -51.333 125.667 -77 213 -77c156.667 -1.33301 272.667 69.667 348 213v0c53.333 -140.667 166.666 -211.667 339.999 -213c109.333 1.33301 207 21.666 293 60.999l-9 156v0
c-30 -20.667 -66 -40 -108 -58c-44 -18.667 -87.667 -28 -131 -28c-190 -5.33301 -285 127.667 -285 399h590v47c-2.66699 325.333 -125 490.666 -367 495.999c-73.333 0 -133.333 -15.667 -180 -47c-46 -31.333 -82 -74.333 -108 -129v0
c-30 65.333 -71 111.666 -123 138.999c-52 24.667 -110 37 -174 37c-106.667 -1.33301 -205 -30 -295 -86zM668.002 448.002c-4.66699 -218 -86.666 -328.332 -245.999 -330.999c-58.667 0 -102.334 16.333 -131.001 49c-30 31.333 -45 71.666 -45 120.999
c-1.33301 72 26 128.667 82 170c56 39.333 147.333 59 274 59h66v-68z" />
    <glyph glyph-name="ccedilla" unicode="&#xe7;" horiz-adv-x="797" 
d="M276 -405c45.333 -22 105.666 -34.333 180.999 -37c80 1.33301 140.667 19 182 53c40.667 34 61 75.667 61 125c-1.33301 48 -17.666 84.667 -48.999 110c-32.667 24.667 -74.334 37 -125.001 37c-20 0 -39.667 -2 -59 -6l74 109
c84.667 2.66699 156.334 17.667 215.001 45l-9 157c-58.667 -35.333 -128.667 -53.666 -210 -54.999c-183.333 2.66699 -277.666 129 -282.999 379c5.33301 270 101 403 287 399c76 0 142 -16.333 198 -49v0l8 156c-58.667 27.333 -130.334 41 -215.001 41
c-300 -6.66699 -452.667 -189 -458 -547c0 -136.667 32 -251.334 96 -344.001c62.667 -94 158.334 -152 287.001 -174l-113 -168l31 -39c24.667 9.33301 54 14 88 14c60 0 90 -25 90 -75c-2.66699 -53.333 -42.334 -82 -119.001 -86c-42 1.33301 -85 10 -129 26z" />
    <glyph glyph-name="egrave" unicode="&#xe8;" horiz-adv-x="909" 
d="M844 471v92.002c-2.66699 325.333 -125 490.666 -367 495.999c-129.333 -1.33301 -228.333 -49.333 -297 -144c-70.667 -95.333 -106 -226.333 -106 -393c0 -165.333 36 -295 108 -389c70 -96.667 174 -145.667 312 -147c108.667 1.33301 206 21.666 292 60.999l-8 156v0
c-30 -20.667 -66 -40 -108 -58c-44 -18.667 -87.667 -28 -131 -28c-190 -1.33301 -285 116.667 -285 354h590zM254 602.002c4 121.333 26.667 206.667 68 256c40.667 46.667 89 70 145 70c136.667 0 205 -108.667 205 -326h-418zM430 1188h131l-137 297h-203z" />
    <glyph glyph-name="eacute" unicode="&#xe9;" horiz-adv-x="909" 
d="M844 471v92.002c-2.66699 325.333 -125 490.666 -367 495.999c-129.333 -1.33301 -228.333 -49.333 -297 -144c-70.667 -95.333 -106 -226.333 -106 -393c0 -165.333 36 -295 108 -389c70 -96.667 174 -145.667 312 -147c108.667 1.33301 206 21.666 292 60.999l-8 156v0
c-30 -20.667 -66 -40 -108 -58c-44 -18.667 -87.667 -28 -131 -28c-190 -1.33301 -285 116.667 -285 354h590zM254 602.002c4 121.333 26.667 206.667 68 256c40.667 46.667 89 70 145 70c136.667 0 205 -108.667 205 -326h-418zM362 1188h132l208 297h-202z" />
    <glyph glyph-name="ecircumflex" unicode="&#xea;" horiz-adv-x="909" 
d="M844 471v92.002c-2.66699 325.333 -125 490.666 -367 495.999c-129.333 -1.33301 -228.333 -49.333 -297 -144c-70.667 -95.333 -106 -226.333 -106 -393c0 -165.333 36 -295 108 -389c70 -96.667 174 -145.667 312 -147c108.667 1.33301 206 21.666 292 60.999l-8 156v0
c-30 -20.667 -66 -40 -108 -58c-44 -18.667 -87.667 -28 -131 -28c-190 -1.33301 -285 116.667 -285 354h590zM254 602.002c4 121.333 26.667 206.667 68 256c40.667 46.667 89 70 145 70c136.667 0 205 -108.667 205 -326h-418zM175 1188h156l127 186v0l127 -186h155
l-204 297h-156z" />
    <glyph glyph-name="edieresis" unicode="&#xeb;" horiz-adv-x="909" 
d="M844 471v92.002c-2.66699 325.333 -125 490.666 -367 495.999c-129.333 -1.33301 -228.333 -49.333 -297 -144c-70.667 -95.333 -106 -226.333 -106 -393c0 -165.333 36 -295 108 -389c70 -96.667 174 -145.667 312 -147c108.667 1.33301 206 21.666 292 60.999l-8 156v0
c-30 -20.667 -66 -40 -108 -58c-44 -18.667 -87.667 -28 -131 -28c-190 -1.33301 -285 116.667 -285 354h590zM254 602.002c4 121.333 26.667 206.667 68 256c40.667 46.667 89 70 145 70c136.667 0 205 -108.667 205 -326h-418zM213 1259h164v205h-164v-205zM541 1259h164
v205h-164v-205z" />
    <glyph glyph-name="igrave" unicode="&#xec;" horiz-adv-x="455" 
d="M141 0h172v1044h-172v-1044zM193 1188h131l-137 297h-203z" />
    <glyph glyph-name="iacute" unicode="&#xed;" horiz-adv-x="455" 
d="M141 0h172v1044h-172v-1044zM125 1188h132l208 297h-202z" />
    <glyph glyph-name="icircumflex" unicode="&#xee;" horiz-adv-x="455" 
d="M141 0h172v1044h-172v-1044zM-63 1188h156l127 186v0l127 -186h155l-204 297h-156z" />
    <glyph glyph-name="idieresis" unicode="&#xef;" horiz-adv-x="455" 
d="M141 0h172v1044h-172v-1044zM-24 1259h164v205h-164v-205zM304 1259h164v205h-164v-205z" />
    <glyph glyph-name="eth" unicode="&#xf0;" horiz-adv-x="987" 
d="M254 522c-1.33301 263.333 78.667 395.666 240 396.999c160.667 -1.33301 240.334 -133.666 239.001 -396.999c1.33301 -264.667 -78.334 -397 -239.001 -397c-161.333 0 -241.333 132.333 -240 397v0zM276 1251l159.997 96.002v0
c122.667 -77.333 214.334 -202.666 275.001 -375.999l-4 -4c-18 21.333 -42.667 41.666 -74 60.999s-77.666 29.666 -138.999 30.999c-138 -1.33301 -242 -49.333 -312 -144c-72 -95.333 -108 -226.333 -108 -393c0 -165.333 36 -295 108 -389
c70 -96.667 174 -145.667 312 -147c280.667 0 420.334 212.333 419.001 637c-4 375.333 -122.667 640.666 -356 795.999l141 86l-67 55v0l-146 -88v0c-69.333 40 -146.333 69.333 -231 88l-62 -77c63.333 -19.333 122.333 -46 177 -80l-160 -96z" />
    <glyph glyph-name="ntilde" unicode="&#xf1;" horiz-adv-x="987" 
d="M125 0l172 0.000976562v629c2.66699 188 76.334 282 221.001 282c113.333 1.33301 170.666 -77.667 171.999 -237v-674h172v725c-5.33301 224 -107 335.333 -305 334c-120 1.33301 -208 -55.334 -264 -170.001h-4l-6 155h-166c4 -73.333 6.66699 -148.333 8 -225v-819z
M689 1454c-10.667 -58.667 -33.668 -87.999 -69.001 -87.999c-11.333 -1.33301 -35.333 7.66699 -72 27c-39.333 20 -70.666 34.333 -93.999 43c-23.333 5.33301 -44 8 -62 8c-114.667 -1.33301 -179.334 -74.333 -194.001 -219h106c2.66699 16 7 30.333 13 43
c4 12 9.33301 20.667 16 26c15.333 12.667 32.333 19 51 19c11.333 1.33301 43.333 -10.334 96 -35.001c38.667 -18 68.334 -29.667 89.001 -35c20 -5.33301 37.667 -8 53 -8c49.333 0 88.333 20.333 117 61c28.667 37.333 47.667 90 57 158h-107z" />
    <glyph glyph-name="ograve" unicode="&#xf2;" horiz-adv-x="987" 
d="M254 522c-1.33301 263.333 78.667 395.666 240 396.999c160.667 -1.33301 240.334 -133.666 239.001 -396.999c1.33301 -264.667 -78.334 -397 -239.001 -397c-161.333 0 -241.333 132.333 -240 397v0zM74 522c0 -165.333 36 -295 108 -389
c70 -96.667 174 -145.667 312 -147c138.667 1.33301 243.667 50.333 315 147c69.333 94 104 223.667 104 389c0 166.667 -34.667 297.667 -104 393c-71.333 94.667 -176.333 142.667 -315 144c-138 -1.33301 -242 -49.333 -312 -144c-72 -95.333 -108 -226.333 -108 -393v0z
M470 1188h131l-137 297h-203z" />
    <glyph glyph-name="oacute" unicode="&#xf3;" horiz-adv-x="987" 
d="M254 522c-1.33301 263.333 78.667 395.666 240 396.999c160.667 -1.33301 240.334 -133.666 239.001 -396.999c1.33301 -264.667 -78.334 -397 -239.001 -397c-161.333 0 -241.333 132.333 -240 397v0zM74 522c0 -165.333 36 -295 108 -389
c70 -96.667 174 -145.667 312 -147c138.667 1.33301 243.667 50.333 315 147c69.333 94 104 223.667 104 389c0 166.667 -34.667 297.667 -104 393c-71.333 94.667 -176.333 142.667 -315 144c-138 -1.33301 -242 -49.333 -312 -144c-72 -95.333 -108 -226.333 -108 -393v0z
M400 1188h132l208 297h-202z" />
    <glyph glyph-name="ocircumflex" unicode="&#xf4;" horiz-adv-x="987" 
d="M254 522c-1.33301 263.333 78.667 395.666 240 396.999c160.667 -1.33301 240.334 -133.666 239.001 -396.999c1.33301 -264.667 -78.334 -397 -239.001 -397c-161.333 0 -241.333 132.333 -240 397v0zM74 522c0 -165.333 36 -295 108 -389
c70 -96.667 174 -145.667 312 -147c138.667 1.33301 243.667 50.333 315 147c69.333 94 104 223.667 104 389c0 166.667 -34.667 297.667 -104 393c-71.333 94.667 -176.333 142.667 -315 144c-138 -1.33301 -242 -49.333 -312 -144c-72 -95.333 -108 -226.333 -108 -393v0z
M215 1188h156l127 186v0l127 -186h155l-204 297h-156z" />
    <glyph glyph-name="otilde" unicode="&#xf5;" horiz-adv-x="987" 
d="M254 522c-1.33301 263.333 78.667 395.666 240 396.999c160.667 -1.33301 240.334 -133.666 239.001 -396.999c1.33301 -264.667 -78.334 -397 -239.001 -397c-161.333 0 -241.333 132.333 -240 397v0zM74 522c0 -165.333 36 -295 108 -389
c70 -96.667 174 -145.667 312 -147c138.667 1.33301 243.667 50.333 315 147c69.333 94 104 223.667 104 389c0 166.667 -34.667 297.667 -104 393c-71.333 94.667 -176.333 142.667 -315 144c-138 -1.33301 -242 -49.333 -312 -144c-72 -95.333 -108 -226.333 -108 -393v0z
M690 1454c-10.667 -58.667 -33.668 -87.999 -69.001 -87.999c-11.333 -1.33301 -35.333 7.66699 -72 27c-39.333 20 -70.666 34.333 -93.999 43c-23.333 5.33301 -44 8 -62 8c-114.667 -1.33301 -179.334 -74.333 -194.001 -219h106c2.66699 16 7 30.333 13 43
c4 12 9.33301 20.667 16 26c15.333 12.667 32.333 19 51 19c11.333 1.33301 43.333 -10.334 96 -35.001c38.667 -18 68.334 -29.667 89.001 -35c20 -5.33301 37.667 -8 53 -8c49.333 0 88.333 20.333 117 61c28.667 37.333 47.667 90 57 158h-107z" />
    <glyph glyph-name="odieresis" unicode="&#xf6;" horiz-adv-x="987" 
d="M254 522c-1.33301 263.333 78.667 395.666 240 396.999c160.667 -1.33301 240.334 -133.666 239.001 -396.999c1.33301 -264.667 -78.334 -397 -239.001 -397c-161.333 0 -241.333 132.333 -240 397v0zM74 522c0 -165.333 36 -295 108 -389
c70 -96.667 174 -145.667 312 -147c138.667 1.33301 243.667 50.333 315 147c69.333 94 104 223.667 104 389c0 166.667 -34.667 297.667 -104 393c-71.333 94.667 -176.333 142.667 -315 144c-138 -1.33301 -242 -49.333 -312 -144c-72 -95.333 -108 -226.333 -108 -393v0z
M253 1259h164v205h-164v-205zM581 1259h164v205h-164v-205z" />
    <glyph glyph-name="divide" unicode="&#xf7;" horiz-adv-x="1229" 
d="M96 448h1036v140h-1036v-140zM483 919c0 -35.333 13.667 -65.333 41 -90c24.667 -27.333 54.667 -41 90 -41c38.667 0 70.334 13.667 95.001 41c22.667 24.667 34.667 54.667 36 90c-1.33301 38.667 -13.333 70.334 -36 95.001
c-24.667 23.333 -56.334 35.666 -95.001 36.999c-35.333 -1.33301 -65.333 -13.666 -90 -36.999c-27.333 -24.667 -41 -56.334 -41 -95.001v0zM483 117c0 -36 13.667 -66 41 -90c24.667 -26 54.667 -39.667 90 -41c38.667 1.33301 70.334 15 95.001 41
c22.667 24 34.667 54 36 90c-1.33301 38 -13.333 69.333 -36 94c-24.667 23.333 -56.334 35.666 -95.001 36.999c-35.333 -1.33301 -65.333 -13.666 -90 -36.999c-27.333 -24.667 -41 -56 -41 -94v0z" />
    <glyph glyph-name="oslash" unicode="&#xf8;" horiz-adv-x="987" 
d="M279 313c-16.667 56 -25 125.668 -25 209.001c-1.33301 263.333 78.667 395.666 240 396.999c81.333 0 142 -34 182 -102zM109 -26.999l100 127v0c66.667 -74.667 161.667 -112.667 285 -114c138.667 1.33301 243.667 50.333 315 147c69.333 94 104 223.667 104 389
c0 150 -29.333 270.333 -88 361l115 141l-61 47v0l-101 -125v0c-68 74 -162.667 111.667 -284 113c-138 -1.33301 -242 -49.333 -312 -144c-72 -95.333 -108 -226.333 -108 -393c0 -148.667 28.667 -268 86 -358l-113 -144zM709 733.001
c16 -57.333 24.001 -127.667 24.001 -211c1.33301 -264.667 -78.334 -397 -239.001 -397c-80.667 0 -141.667 34.667 -183 104z" />
    <glyph glyph-name="ugrave" unicode="&#xf9;" horiz-adv-x="987" 
d="M862 1044h-172v-628c-2.66699 -188.667 -76.334 -283 -221.001 -283c-113.333 -2.66699 -170.666 76.666 -171.999 237.999v673h-172v-725c5.33301 -223.333 107 -334.333 305 -333c121.333 -1.33301 209.333 55.334 264 170.001h4l6 -156h166c-5.33301 74 -8 149 -8 225
v819zM469 1188h131l-137 297h-203z" />
    <glyph glyph-name="uacute" unicode="&#xfa;" horiz-adv-x="987" 
d="M862 1044h-172v-628c-2.66699 -188.667 -76.334 -283 -221.001 -283c-113.333 -2.66699 -170.666 76.666 -171.999 237.999v673h-172v-725c5.33301 -223.333 107 -334.333 305 -333c121.333 -1.33301 209.333 55.334 264 170.001h4l6 -156h166c-5.33301 74 -8 149 -8 225
v819zM399 1188h132l208 297h-202z" />
    <glyph glyph-name="ucircumflex" unicode="&#xfb;" horiz-adv-x="987" 
d="M862 1044h-172v-628c-2.66699 -188.667 -76.334 -283 -221.001 -283c-113.333 -2.66699 -170.666 76.666 -171.999 237.999v673h-172v-725c5.33301 -223.333 107 -334.333 305 -333c121.333 -1.33301 209.333 55.334 264 170.001h4l6 -156h166c-5.33301 74 -8 149 -8 225
v819zM214 1188h156l127 186v0l127 -186h155l-204 297h-156z" />
    <glyph glyph-name="udieresis" unicode="&#xfc;" horiz-adv-x="987" 
d="M862 1044h-172v-628c-2.66699 -188.667 -76.334 -283 -221.001 -283c-113.333 -2.66699 -170.666 76.666 -171.999 237.999v673h-172v-725c5.33301 -223.333 107 -334.333 305 -333c121.333 -1.33301 209.333 55.334 264 170.001h4l6 -156h166c-5.33301 74 -8 149 -8 225
v819zM252 1259h164v205h-164v-205zM580 1259h164v205h-164v-205z" />
    <glyph glyph-name="yacute" unicode="&#xfd;" horiz-adv-x="833" 
d="M815 1044h-171.999l-217 -852h-4l-234 852h-180l330 -1060l-41 -160c-14 -52 -30.333 -87 -49 -105c-19.333 -17.333 -41.333 -26 -66 -26c-36.667 1.33301 -68 8 -94 20l-8 -155c34 -8.66699 73 -13 117 -13c64 0 117 18.667 159 56c41.333 38 73.666 100 96.999 186z
M324.001 1188h132l208 297h-202z" />
    <glyph glyph-name="thorn" unicode="&#xfe;" horiz-adv-x="985" 
d="M281 522c-1.33301 263.333 75 395.666 229 396.999c154 -1.33301 230.333 -133.666 229 -396.999c1.33301 -264.667 -75 -397 -229 -397s-230.333 132.333 -229 397v0zM109 -442l172 -0.000976562v585h4c64 -106 152.667 -158.333 266 -157
c233.333 0 353.333 178.667 360 536c-6.66699 358 -126.667 537 -360 537c-75.333 -1.33301 -134 -18.333 -176 -51c-42.667 -33.333 -72.667 -69.666 -90 -108.999h-4v637h-172v-1978z" />
    <glyph glyph-name="ydieresis" unicode="&#xff;" horiz-adv-x="833" 
d="M815 1044h-171.999l-217 -852h-4l-234 852h-180l330 -1060l-41 -160c-14 -52 -30.333 -87 -49 -105c-19.333 -17.333 -41.333 -26 -66 -26c-36.667 1.33301 -68 8 -94 20l-8 -155c34 -8.66699 73 -13 117 -13c64 0 117 18.667 159 56c41.333 38 73.666 100 96.999 186z
M177.001 1259h164v205h-164v-205zM505.001 1259h164v205h-164v-205z" />
    <glyph glyph-name="dotlessi" unicode="&#x131;" horiz-adv-x="455" 
d="M141 0h172v1044h-172v-1044z" />
    <glyph glyph-name="Lslash" unicode="&#x141;" horiz-adv-x="833" 
d="M158 569v-569h649v156h-469v585l260 248v176v0l-260 -248v0v512h-180v-684l-138 -131v-176v0l138 131v0z" />
    <glyph glyph-name="lslash" unicode="&#x142;" horiz-adv-x="455" 
d="M141 0h172v848l142 176v147v0l-138 -172h-4v537h-172v-756l-141 -178v-147v0l137 178h4v-633z" />
    <glyph glyph-name="caron" unicode="&#x2c7;" horiz-adv-x="418" 
d="M131 1188h156l204 297h-155l-127 -187v0l-127 187h-156z" />
    <glyph glyph-name="breve" unicode="&#x2d8;" horiz-adv-x="418" 
d="M-49 1468c27.333 -177.333 113.334 -265.333 258.001 -264c146 -1.33301 232 86.667 258 264h-107c-16 -92.667 -66.333 -139.667 -151 -141c-84.667 1.33301 -135.334 48.333 -152.001 141h-106z" />
    <glyph glyph-name="dotaccent" unicode="&#x2d9;" horiz-adv-x="418" 
d="M127 1259h164v205h-164v-205z" />
    <glyph glyph-name="nundagesh" unicode="&#x2da;" horiz-adv-x="418" 
d="M-4 1368c1.33301 -58.667 22.333 -108.667 63 -150c41.333 -42 91.333 -63 150 -63c61.333 0 111.666 21 150.999 63c40 41.333 60.667 91.333 62 150c-1.33301 61.333 -22 112 -62 152c-39.333 39.333 -89.666 59.666 -150.999 60.999
c-58.667 -1.33301 -108.667 -21.666 -150 -60.999c-40.667 -40 -61.667 -90.667 -63 -152v0zM90 1368c0 34 12.333 62.667 37 86c22 22 49.333 33 82 33c34 0 62.667 -11 86 -33c22 -23.333 33 -52 33 -86c0 -32.667 -11 -60 -33 -82c-23.333 -24.667 -52 -37 -86 -37
c-32.667 0 -60 12.333 -82 37c-24.667 22 -37 49.333 -37 82v0z" />
    <glyph glyph-name="ogonek" unicode="&#x2db;" horiz-adv-x="418" 
d="M373 -334c-24.667 -16 -62.334 -24.668 -113.001 -26.001c-62.667 1.33301 -94.667 36 -96 104c0 48 16.333 95 49 141c31.333 44 75 82.333 131 115h-90c-157.333 -75.333 -236.666 -162.666 -237.999 -261.999c0 -61.333 23.333 -106.333 70 -135
c42 -30 96 -45 162 -45c46 0 97 12.333 153 37z" />
    <glyph glyph-name="minus" unicode="&#x2212;" horiz-adv-x="1229" 
d="M96 448h1036v140h-1036v-140z" />
    <glyph glyph-name="fraction" unicode="&#x2215;" horiz-adv-x="342" 
d="M-215 -68h131l641 1565h-131z" />
    <glyph glyph-name="bulletmath" unicode="&#x2219;" horiz-adv-x="491" 
d="M115 610c0 -35.333 13.667 -65.333 41 -90c24 -27.333 54 -41 90 -41c38 0 69.333 13.667 94 41c23.333 24.667 35.666 54.667 36.999 90c-1.33301 38.667 -13.666 70 -36.999 94c-24.667 23.333 -56 35.666 -94 36.999c-36 -1.33301 -66 -13.666 -90 -36.999
c-27.333 -24 -41 -55.333 -41 -94v0z" />
    <glyph glyph-name=".0" unicode="&#xe000;" horiz-adv-x="0" 
 />
    <glyph glyph-name=".1" unicode="&#xe001;" horiz-adv-x="0" 
 />
    <glyph glyph-name=".2" unicode="&#xf001;" horiz-adv-x="1024" 
d="M711 0h172v1044h-172v-1044zM702 1474v-204h189v204h-189zM199 0h172v905h188v139h-188v220c0 52.667 9.33301 92 28 118c18 26 50.333 39 97 39c43.333 0 76 -8 98 -24v147c-41.333 10.667 -86.333 16 -135 16c-90 0 -155.667 -25 -197 -75
c-42 -50.667 -63 -119.667 -63 -207v-234h-166v-139h166v-905z" />
    <glyph glyph-name=".3" unicode="&#xf002;" horiz-adv-x="1024" 
d="M711 0h172v1536h-172v-1536zM199 0h172v905h188v139h-188v220c0 52.667 9.33301 92 28 118c18 26 50.333 39 97 39c43.333 0 76 -8 98 -24v147c-41.333 10.667 -86.333 16 -135 16c-90 0 -155.667 -25 -197 -75c-42 -50.667 -63 -119.667 -63 -207v-234h-166v-139h166
v-905z" />
    <glyph glyph-name=".272" horiz-adv-x="500" 
 />
    </font>
</defs>
</svg>
